<svg width="485" height="368" viewBox="0 0 485 368" fill="none" xmlns="http://www.w3.org/2000/svg">
<path d="M237.067 107.539L208.47 119.862C208.47 119.862 223.13 142.418 233.072 146.808C234.097 147.262 235.287 146.722 235.685 145.656C237.482 140.866 241.649 126.706 237.067 107.539Z" fill="black"/>
<path d="M237.067 107.539L208.47 119.862C208.47 119.862 223.13 142.418 233.072 146.808C234.097 147.262 235.287 146.722 235.685 145.656C237.482 140.866 241.649 126.706 237.067 107.539Z" fill="url(#paint0_linear_9_7913)"/>
<path d="M204.226 121.646C204.226 121.646 181.83 130.169 175.303 131.723C175.303 131.723 182.12 149.762 191.691 157.777C193.176 159.019 195.388 158.667 196.396 157.002C199.811 151.366 206.561 137.797 204.226 121.646Z" fill="black"/>
<path d="M204.226 121.646C204.226 121.646 181.83 130.169 175.303 131.723C175.303 131.723 182.12 149.762 191.691 157.777C193.176 159.019 195.388 158.667 196.396 157.002C199.811 151.366 206.561 137.797 204.226 121.646Z" fill="url(#paint1_linear_9_7913)"/>
<path d="M170.9 132.384C170.9 132.384 150.075 140.099 144.019 141.008C144.019 141.008 153.548 160.949 162.593 172.019C163.273 172.853 164.56 172.781 165.147 171.877C168.005 167.5 174.557 154.596 170.9 132.384Z" fill="black"/>
<path d="M170.9 132.384C170.9 132.384 150.075 140.099 144.019 141.008C144.019 141.008 153.548 160.949 162.593 172.019C163.273 172.853 164.56 172.781 165.147 171.877C168.005 167.5 174.557 154.596 170.9 132.384Z" fill="url(#paint2_linear_9_7913)"/>
<path d="M141.267 141.422C141.267 141.422 121.138 146.165 112.246 146.926C112.246 146.926 119.834 171.23 131.23 176.924C132.2 177.409 133.372 177.003 133.874 176.03C136.333 171.273 143.011 156.679 141.267 141.422Z" fill="black"/>
<path d="M141.267 141.422C141.267 141.422 121.138 146.165 112.246 146.926C112.246 146.926 119.834 171.23 131.23 176.924C132.2 177.409 133.372 177.003 133.874 176.03C136.333 171.273 143.011 156.679 141.267 141.422Z" fill="url(#paint3_linear_9_7913)"/>
<path d="M242.825 94.2723H210V56.4606C210 53.2945 212.195 50.5458 215.248 49.9552C221.343 48.7768 227.446 48.7512 233.552 50.0375C236.285 50.614 238.321 52.9566 238.63 55.782L242.825 94.2723Z" fill="black"/>
<path d="M242.825 94.2723H210V56.4606C210 53.2945 212.195 50.5458 215.248 49.9552C221.343 48.7768 227.446 48.7512 233.552 50.0375C236.285 50.614 238.321 52.9566 238.63 55.782L242.825 94.2723Z" fill="url(#paint4_linear_9_7913)"/>
<path d="M220.545 45.5083C206.837 45.5054 205.071 33.903 209.414 26.1566C213.024 19.7165 217.676 8.31846 219.626 3.41453C219.863 2.8239 220.403 2.50587 220.949 2.50587C221.37 2.50587 221.79 2.69328 222.08 3.08798C228.133 11.3426 248.916 42.1746 224.066 45.2783C222.815 45.4344 221.643 45.5083 220.545 45.5083ZM213.021 35.8509C212.358 39.9938 214.442 44.3128 220.974 44.3128C221.643 44.3128 222.358 44.2674 223.122 44.1708C238.275 42.2797 225.601 23.4789 221.91 18.4444C221.882 18.4074 221.854 18.3734 221.821 18.3421C221.656 18.1746 221.439 18.0923 221.225 18.0923C221.225 18.0923 221.222 18.0923 221.219 18.0923H221.216C220.885 18.0923 220.556 18.2853 220.414 18.6431C219.225 21.636 216.389 28.5844 214.185 32.5144C213.606 33.5452 213.205 34.6924 213.021 35.8509Z" fill="black"/>
<path d="M220.545 45.5083C206.837 45.5054 205.071 33.903 209.414 26.1566C213.024 19.7165 217.676 8.31846 219.626 3.41453C219.863 2.8239 220.403 2.50587 220.949 2.50587C221.37 2.50587 221.79 2.69328 222.08 3.08798C228.133 11.3426 248.916 42.1746 224.066 45.2783C222.815 45.4344 221.643 45.5083 220.545 45.5083ZM213.021 35.8509C212.358 39.9938 214.442 44.3128 220.974 44.3128C221.643 44.3128 222.358 44.2674 223.122 44.1708C238.275 42.2797 225.601 23.4789 221.91 18.4444C221.882 18.4074 221.854 18.3734 221.821 18.3421C221.656 18.1746 221.439 18.0923 221.225 18.0923C221.225 18.0923 221.222 18.0923 221.219 18.0923H221.216C220.885 18.0923 220.556 18.2853 220.414 18.6431C219.225 21.636 216.389 28.5844 214.185 32.5144C213.606 33.5452 213.205 34.6924 213.021 35.8509Z" fill="url(#paint5_linear_9_7913)"/>
<path d="M220.974 44.3125C214.442 44.3125 212.359 39.9935 213.021 35.8506C213.205 34.692 213.606 33.5448 214.186 32.5141C216.389 28.5841 219.225 21.6357 220.414 18.6428C220.557 18.285 220.885 18.0919 221.217 18.0919H221.225C221.44 18.0919 221.657 18.1743 221.821 18.3418C221.855 18.373 221.882 18.4071 221.91 18.444C225.601 23.4786 238.276 42.2793 223.122 44.1705C222.359 44.267 221.643 44.3125 220.974 44.3125Z" fill="#FEB3B1"/>
<path d="M220.551 39.9L221.629 52.5361C221.693 53.2829 222.286 53.8906 223.021 53.9076H223.06C223.932 53.919 224.606 53.1239 224.512 52.2379C224.049 47.9275 222.503 35.422 220.551 39.9Z" fill="black"/>
<path d="M220.551 39.9L221.629 52.5361C221.693 53.2829 222.286 53.8906 223.021 53.9076H223.06C223.932 53.919 224.606 53.1239 224.512 52.2379C224.049 47.9275 222.503 35.422 220.551 39.9Z" fill="url(#paint6_linear_9_7913)"/>
<path d="M124.202 97.4583L156.992 95.8936L155.256 58.1246C155.111 54.9613 152.794 52.3205 149.716 51.8747C143.573 50.9887 137.478 51.2528 131.436 52.8316C128.734 53.5358 126.807 55.9722 126.629 58.8089L124.202 97.4583Z" fill="black"/>
<path d="M124.202 97.4583L156.992 95.8936L155.256 58.1246C155.111 54.9613 152.794 52.3205 149.716 51.8747C143.573 50.9887 137.478 51.2528 131.436 52.8316C128.734 53.5358 126.807 55.9722 126.629 58.8089L124.202 97.4583Z" fill="url(#paint7_linear_9_7913)"/>
<path d="M142.994 47.7145C142.259 47.7145 141.493 47.6833 140.691 47.6236C130.587 46.8484 127.743 41.1778 128.311 34.1385C129.147 23.7855 137.367 10.4651 140.743 5.38507C141.028 4.9563 141.471 4.749 141.913 4.749C142.437 4.749 142.958 5.03864 143.209 5.59236C144.507 8.466 146.875 13.6113 149.404 18.6203C151.109 21.9937 152.883 25.3075 154.451 27.8262C159.282 35.5753 157.839 47.7145 142.994 47.7145ZM141.585 46.4736C142.075 46.5105 142.54 46.5304 142.989 46.5304C143.139 46.5304 143.287 46.5276 143.432 46.5247C152.07 46.2834 152.872 39.0481 149.978 34.4026C147.596 30.5834 144.446 23.7769 143.12 20.8437C142.966 20.5058 142.649 20.3297 142.331 20.3297H142.328C142.061 20.3297 141.788 20.4546 141.615 20.7159C139.451 23.9785 134.011 32.8039 133.994 39.2299C133.983 43.0604 135.899 46.0392 141.585 46.4736Z" fill="black"/>
<path d="M142.994 47.7145C142.259 47.7145 141.493 47.6833 140.691 47.6236C130.587 46.8484 127.743 41.1778 128.311 34.1385C129.147 23.7855 137.367 10.4651 140.743 5.38507C141.028 4.9563 141.471 4.749 141.913 4.749C142.437 4.749 142.958 5.03864 143.209 5.59236C144.507 8.466 146.875 13.6113 149.404 18.6203C151.109 21.9937 152.883 25.3075 154.451 27.8262C159.282 35.5753 157.839 47.7145 142.994 47.7145ZM141.585 46.4736C142.075 46.5105 142.54 46.5304 142.989 46.5304C143.139 46.5304 143.287 46.5276 143.432 46.5247C152.07 46.2834 152.872 39.0481 149.978 34.4026C147.596 30.5834 144.446 23.7769 143.12 20.8437C142.966 20.5058 142.649 20.3297 142.331 20.3297H142.328C142.061 20.3297 141.788 20.4546 141.615 20.7159C139.451 23.9785 134.011 32.8039 133.994 39.2299C133.983 43.0604 135.899 46.0392 141.585 46.4736Z" fill="url(#paint8_linear_9_7913)"/>
<path d="M142.988 46.5302C142.54 46.5302 142.075 46.5103 141.584 46.4734C142.072 46.5103 142.54 46.5302 142.988 46.5302ZM141.584 46.4734C135.899 46.0389 133.982 43.0602 133.993 39.2296V39.2949C134.005 43.0943 135.929 46.0389 141.584 46.4734Z" fill="black"/>
<path d="M142.988 46.5302C142.54 46.5302 142.072 46.5103 141.584 46.4734C135.929 46.0389 134.005 43.0943 133.993 39.2949V39.2296C134.01 32.8037 139.45 23.9783 141.615 20.7156C141.788 20.4544 142.061 20.3295 142.328 20.3295H142.331C142.648 20.3295 142.966 20.5055 143.119 20.8434C144.445 23.7767 147.596 30.5831 149.977 34.4024C152.871 39.0479 152.069 46.2831 143.431 46.5245C143.286 46.5273 143.139 46.5302 142.988 46.5302Z" fill="#FEB3B1"/>
<path d="M143.958 42.0837L143.462 54.7567C143.432 55.5063 142.866 56.1424 142.133 56.1935L142.092 56.1963C141.223 56.2475 140.512 55.4865 140.568 54.5977C140.833 50.2702 141.802 37.7051 143.958 42.0837Z" fill="black"/>
<path d="M143.958 42.0837L143.462 54.7567C143.432 55.5063 142.866 56.1424 142.133 56.1935L142.092 56.1963C141.223 56.2475 140.512 55.4865 140.568 54.5977C140.833 50.2702 141.802 37.7051 143.958 42.0837Z" fill="url(#paint9_linear_9_7913)"/>
<path d="M204.138 92.4803H168.385L171.316 54.6686C171.316 51.5025 173.511 48.7538 176.564 48.1632C182.659 46.9848 188.759 46.9592 194.865 48.2455C197.598 48.822 199.637 51.1618 199.943 53.99L204.138 92.4803Z" fill="black"/>
<path d="M204.138 92.4803H168.385L171.316 54.6686C171.316 51.5025 173.511 48.7538 176.564 48.1632C182.659 46.9848 188.759 46.9592 194.865 48.2455C197.598 48.822 199.637 51.1618 199.943 53.99L204.138 92.4803Z" fill="url(#paint10_linear_9_7913)"/>
<path d="M181.862 43.7164C168.151 43.7135 166.388 32.1111 170.728 24.3647C174.338 17.9246 178.993 6.52656 180.943 1.61979C181.177 1.02916 181.717 0.713985 182.263 0.713985C182.684 0.713985 183.107 0.901379 183.394 1.29324C189.45 9.5507 210.233 40.3827 185.383 43.4835C184.129 43.6397 182.959 43.7164 181.862 43.7164ZM174.625 32.7954C173.293 37.2706 175.087 42.5209 182.291 42.5209C182.959 42.5209 183.672 42.4755 184.438 42.3789C193.004 41.3113 192.676 34.8342 190.104 28.4963C190.093 28.4679 190.082 28.4395 190.071 28.4083C190.068 28.4054 190.068 28.4026 190.065 28.3998C190.054 28.3685 190.04 28.3401 190.029 28.3117C190.024 28.2975 190.018 28.2833 190.012 28.2691C188.026 23.4788 184.803 18.8049 183.224 16.6525C183.051 16.4139 182.795 16.3004 182.541 16.2975C182.539 16.2975 182.536 16.2975 182.536 16.2975C182.533 16.2975 182.533 16.2975 182.53 16.2975C182.199 16.3004 181.873 16.4935 181.728 16.8512C180.541 19.8413 177.703 26.7925 175.502 30.7197C175.135 31.3756 174.839 32.0742 174.625 32.7954Z" fill="black"/>
<path d="M181.862 43.7164C168.151 43.7135 166.388 32.1111 170.728 24.3647C174.338 17.9246 178.993 6.52656 180.943 1.61979C181.177 1.02916 181.717 0.713985 182.263 0.713985C182.684 0.713985 183.107 0.901379 183.394 1.29324C189.45 9.5507 210.233 40.3827 185.383 43.4835C184.129 43.6397 182.959 43.7164 181.862 43.7164ZM174.625 32.7954C173.293 37.2706 175.087 42.5209 182.291 42.5209C182.959 42.5209 183.672 42.4755 184.438 42.3789C193.004 41.3113 192.676 34.8342 190.104 28.4963C190.093 28.4679 190.082 28.4395 190.071 28.4083C190.068 28.4054 190.068 28.4026 190.065 28.3998C190.054 28.3685 190.04 28.3401 190.029 28.3117C190.024 28.2975 190.018 28.2833 190.012 28.2691C188.026 23.4788 184.803 18.8049 183.224 16.6525C183.051 16.4139 182.795 16.3004 182.541 16.2975C182.539 16.2975 182.536 16.2975 182.536 16.2975C182.533 16.2975 182.533 16.2975 182.53 16.2975C182.199 16.3004 181.873 16.4935 181.728 16.8512C180.541 19.8413 177.703 26.7925 175.502 30.7197C175.135 31.3756 174.839 32.0742 174.625 32.7954Z" fill="url(#paint11_linear_9_7913)"/>
<path d="M182.29 42.521C175.087 42.521 173.293 37.2706 174.624 32.7954C173.293 37.2706 175.089 42.5181 182.29 42.521ZM182.541 16.2975H182.53C182.533 16.2975 182.533 16.2975 182.535 16.2975C182.535 16.2975 182.538 16.2975 182.541 16.2975Z" fill="black"/>
<path d="M182.291 42.521C175.091 42.5181 173.294 37.2706 174.625 32.7954C174.84 32.0742 175.135 31.3756 175.503 30.7197C177.703 26.7926 180.542 19.8413 181.729 16.8513C181.873 16.4935 182.199 16.3004 182.531 16.2975H182.542C182.796 16.3004 183.052 16.414 183.224 16.6525C184.804 18.8049 188.027 23.4788 190.013 28.2692C190.019 28.2833 190.024 28.2975 190.03 28.3117C190.041 28.3401 190.055 28.3686 190.066 28.3998C190.069 28.4026 190.069 28.4055 190.072 28.4083C190.083 28.4395 190.094 28.4679 190.105 28.4963C192.676 34.8342 193.005 41.3113 184.439 42.379C183.673 42.4755 182.96 42.521 182.291 42.521Z" fill="#FEB3B1"/>
<path d="M181.864 38.1082L182.942 50.7442C183.006 51.491 183.6 52.0987 184.335 52.1157H184.377C185.246 52.1242 185.92 51.3292 185.825 50.4461C185.363 46.1328 183.817 33.6302 181.864 38.1082Z" fill="black"/>
<path d="M181.864 38.1082L182.942 50.7442C183.006 51.491 183.6 52.0987 184.335 52.1157H184.377C185.246 52.1242 185.92 51.3292 185.825 50.4461C185.363 46.1328 183.817 33.6302 181.864 38.1082Z" fill="url(#paint12_linear_9_7913)"/>
<path d="M101.949 200.439L102.396 108.402C102.43 101.527 106.486 95.3225 112.716 92.6931C133.375 83.9728 184.452 69.0282 259.053 91.208C265.666 93.173 270.43 99.0594 271.071 106.05L279.508 198.406L101.949 200.439Z" fill="black"/>
<path d="M101.949 200.439L102.396 108.402C102.43 101.527 106.486 95.3225 112.716 92.6931C133.375 83.9728 184.452 69.0282 259.053 91.208C265.666 93.173 270.43 99.0594 271.071 106.05L279.508 198.406L101.949 200.439Z" fill="url(#paint13_linear_9_7913)"/>
<path d="M108.932 125.193C115.529 123.427 115.38 106.891 118.907 106.891C128.383 106.891 117.886 139.256 131.874 137.396C143.348 135.87 132.545 112.539 141.849 108.924C145.927 107.34 151.785 109.986 154.819 114.007C162.911 124.74 148.295 141.833 155.317 150.106C160.245 155.913 174.009 155.219 178.26 149.089C184.179 140.555 168.635 125.856 174.769 116.55C178.87 110.324 190.932 109.163 194.72 113.499C199.138 118.561 190.413 128.953 195.219 134.853C198.717 139.153 207.943 139.277 211.177 135.362C215.253 130.429 208.308 120.905 212.175 117.567C214.453 115.601 219.052 117.019 221.651 119.092C226.479 122.942 220.178 131.255 224.144 135.87C226.994 139.184 233.73 139.723 236.616 136.887C241.312 132.267 234.387 120.064 237.613 118.076C239.632 116.829 244.841 120.087 248.087 124.685C255.976 135.864 248.505 149.637 254.569 153.665C257.608 155.683 263.162 154.67 266.04 151.631C274.542 142.655 257.884 117.895 264.045 112.991C265.032 112.207 266.839 111.741 270.519 113.127C272.776 113.976 275.132 112.144 274.909 109.702L274.544 105.721C273.77 97.2396 267.959 90.1463 259.934 87.764C233.799 80.0006 208.138 76.0649 183.664 76.0649C150.036 76.0649 125.796 83.32 111.38 89.4052C103.842 92.5884 98.9459 100.037 98.9053 108.382L98.8749 114.629C98.8543 118.858 101.152 122.819 104.907 124.619C106.311 125.292 107.667 125.532 108.932 125.193Z" fill="black"/>
<path d="M108.932 125.193C115.529 123.427 115.38 106.891 118.907 106.891C128.383 106.891 117.886 139.256 131.874 137.396C143.348 135.87 132.545 112.539 141.849 108.924C145.927 107.34 151.785 109.986 154.819 114.007C162.911 124.74 148.295 141.833 155.317 150.106C160.245 155.913 174.009 155.219 178.26 149.089C184.179 140.555 168.635 125.856 174.769 116.55C178.87 110.324 190.932 109.163 194.72 113.499C199.138 118.561 190.413 128.953 195.219 134.853C198.717 139.153 207.943 139.277 211.177 135.362C215.253 130.429 208.308 120.905 212.175 117.567C214.453 115.601 219.052 117.019 221.651 119.092C226.479 122.942 220.178 131.255 224.144 135.87C226.994 139.184 233.73 139.723 236.616 136.887C241.312 132.267 234.387 120.064 237.613 118.076C239.632 116.829 244.841 120.087 248.087 124.685C255.976 135.864 248.505 149.637 254.569 153.665C257.608 155.683 263.162 154.67 266.04 151.631C274.542 142.655 257.884 117.895 264.045 112.991C265.032 112.207 266.839 111.741 270.519 113.127C272.776 113.976 275.132 112.144 274.909 109.702L274.544 105.721C273.77 97.2396 267.959 90.1463 259.934 87.764C233.799 80.0006 208.138 76.0649 183.664 76.0649C150.036 76.0649 125.796 83.32 111.38 89.4052C103.842 92.5884 98.9459 100.037 98.9053 108.382L98.8749 114.629C98.8543 118.858 101.152 122.819 104.907 124.619C106.311 125.292 107.667 125.532 108.932 125.193Z" fill="url(#paint14_linear_9_7913)"/>
<path d="M109.84 181.531C109.84 188.115 104.603 193.453 98.1441 193.453C91.6846 193.453 86.4482 188.115 86.4482 181.531C86.4482 174.946 91.6846 169.608 98.1441 169.608C104.603 169.608 109.84 174.946 109.84 181.531Z" fill="black"/>
<path d="M109.84 181.531C109.84 188.115 104.603 193.453 98.1441 193.453C91.6846 193.453 86.4482 188.115 86.4482 181.531C86.4482 174.946 91.6846 169.608 98.1441 169.608C104.603 169.608 109.84 174.946 109.84 181.531Z" fill="url(#paint15_linear_9_7913)"/>
<path d="M129.489 174.854C129.489 181.439 124.252 186.777 117.793 186.777C111.333 186.777 106.097 181.439 106.097 174.854C106.097 168.27 111.333 162.932 117.793 162.932C124.252 162.932 129.489 168.27 129.489 174.854Z" fill="black"/>
<path d="M129.489 174.854C129.489 181.439 124.252 186.777 117.793 186.777C111.333 186.777 106.097 181.439 106.097 174.854C106.097 168.27 111.333 162.932 117.793 162.932C124.252 162.932 129.489 168.27 129.489 174.854Z" fill="url(#paint16_linear_9_7913)"/>
<path d="M150.54 172.47C150.54 179.054 145.306 184.392 138.846 184.392C132.386 184.392 127.149 179.054 127.149 172.47C127.149 165.885 132.386 160.547 138.846 160.547C145.306 160.547 150.54 165.885 150.54 172.47Z" fill="black"/>
<path d="M150.54 172.47C150.54 179.054 145.306 184.392 138.846 184.392C132.386 184.392 127.149 179.054 127.149 172.47C127.149 165.885 132.386 160.547 138.846 160.547C145.306 160.547 150.54 165.885 150.54 172.47Z" fill="url(#paint17_linear_9_7913)"/>
<path d="M172.062 170.562C172.062 177.147 166.826 182.485 160.366 182.485C153.906 182.485 148.672 177.147 148.672 170.562C148.672 163.978 153.906 158.64 160.366 158.64C166.826 158.64 172.062 163.978 172.062 170.562Z" fill="black"/>
<path d="M172.062 170.562C172.062 177.147 166.826 182.485 160.366 182.485C153.906 182.485 148.672 177.147 148.672 170.562C148.672 163.978 153.906 158.64 160.366 158.64C166.826 158.64 172.062 163.978 172.062 170.562Z" fill="url(#paint18_linear_9_7913)"/>
<path d="M193.116 168.655C193.116 175.239 187.879 180.577 181.419 180.577C174.959 180.577 169.722 175.239 169.722 168.655C169.722 162.07 174.959 156.732 181.419 156.732C187.879 156.732 193.116 162.07 193.116 168.655Z" fill="black"/>
<path d="M193.116 168.655C193.116 175.239 187.879 180.577 181.419 180.577C174.959 180.577 169.722 175.239 169.722 168.655C169.722 162.07 174.959 156.732 181.419 156.732C187.879 156.732 193.116 162.07 193.116 168.655Z" fill="url(#paint19_linear_9_7913)"/>
<path d="M214.634 168.655C214.634 175.239 209.397 180.577 202.938 180.577C196.481 180.577 191.244 175.239 191.244 168.655C191.244 162.07 196.481 156.732 202.938 156.732C209.397 156.732 214.634 162.07 214.634 168.655Z" fill="black"/>
<path d="M214.634 168.655C214.634 175.239 209.397 180.577 202.938 180.577C196.481 180.577 191.244 175.239 191.244 168.655C191.244 162.07 196.481 156.732 202.938 156.732C209.397 156.732 214.634 162.07 214.634 168.655Z" fill="url(#paint20_linear_9_7913)"/>
<path d="M235.688 169.608C235.688 176.193 230.451 181.531 223.991 181.531C217.532 181.531 212.295 176.193 212.295 169.608C212.295 163.024 217.532 157.686 223.991 157.686C230.451 157.686 235.688 163.024 235.688 169.608Z" fill="black"/>
<path d="M235.688 169.608C235.688 176.193 230.451 181.531 223.991 181.531C217.532 181.531 212.295 176.193 212.295 169.608C212.295 163.024 217.532 157.686 223.991 157.686C230.451 157.686 235.688 163.024 235.688 169.608Z" fill="url(#paint21_linear_9_7913)"/>
<path d="M255.803 170.562C255.803 177.147 250.569 182.485 244.109 182.485C237.649 182.485 232.412 177.147 232.412 170.562C232.412 163.978 237.649 158.64 244.109 158.64C250.569 158.64 255.803 163.978 255.803 170.562Z" fill="black"/>
<path d="M255.803 170.562C255.803 177.147 250.569 182.485 244.109 182.485C237.649 182.485 232.412 177.147 232.412 170.562C232.412 163.978 237.649 158.64 244.109 158.64C250.569 158.64 255.803 163.978 255.803 170.562Z" fill="url(#paint22_linear_9_7913)"/>
<path d="M274.985 173.901C274.985 180.485 269.748 185.823 263.288 185.823C256.831 185.823 251.594 180.485 251.594 173.901C251.594 167.316 256.831 161.978 263.288 161.978C269.748 161.978 274.985 167.316 274.985 173.901Z" fill="black"/>
<path d="M274.985 173.901C274.985 180.485 269.748 185.823 263.288 185.823C256.831 185.823 251.594 180.485 251.594 173.901C251.594 167.316 256.831 161.978 263.288 161.978C269.748 161.978 274.985 167.316 274.985 173.901Z" fill="url(#paint23_linear_9_7913)"/>
<path d="M293.698 176.762C293.698 183.346 288.461 188.684 282.001 188.684C275.541 188.684 270.307 183.346 270.307 176.762C270.307 170.177 275.541 164.839 282.001 164.839C288.461 164.839 293.698 170.177 293.698 176.762Z" fill="black"/>
<path d="M293.698 176.762C293.698 183.346 288.461 188.684 282.001 188.684C275.541 188.684 270.307 183.346 270.307 176.762C270.307 170.177 275.541 164.839 282.001 164.839C288.461 164.839 293.698 170.177 293.698 176.762Z" fill="url(#paint24_linear_9_7913)"/>
<path d="M74.8697 248.174C75.0976 229.424 75.7283 224.58 77.3275 203.034C77.8545 195.934 82.4745 189.843 89.073 187.507C118.459 177.103 204.534 152.098 289.568 180.11C296.052 182.245 300.76 187.981 301.626 194.869L312.139 246.816C313.028 253.873 307.635 260.12 300.657 260.12H86.447C79.9961 260.12 74.7898 254.75 74.8697 248.174Z" fill="black"/>
<path d="M74.8693 248.174C75.0974 229.424 75.7279 224.58 77.3272 203.034C77.8543 195.934 82.4743 189.843 89.0727 187.507C118.458 177.103 204.534 152.098 289.568 180.11C296.053 182.245 300.76 187.981 301.624 194.869L312.138 246.816C313.028 253.873 307.635 260.12 300.656 260.12H86.4467C79.9959 260.12 74.7896 254.75 74.8693 248.174Z" fill="url(#paint25_linear_9_7913)"/>
<path d="M70.5616 246.12C70.5616 256.204 62.5421 264.379 52.6493 264.379C42.7564 264.379 34.7367 256.204 34.7367 246.12C34.7367 236.037 42.7564 227.862 52.6493 227.862C62.5421 227.862 70.5616 236.037 70.5616 246.12Z" fill="black"/>
<path d="M70.5616 246.12C70.5616 256.204 62.5421 264.379 52.6493 264.379C42.7564 264.379 34.7367 256.204 34.7367 246.12C34.7367 236.037 42.7564 227.862 52.6493 227.862C62.5421 227.862 70.5616 236.037 70.5616 246.12Z" fill="url(#paint26_linear_9_7913)"/>
<path d="M100.655 235.895C100.655 245.979 92.635 254.154 82.7422 254.154C72.8494 254.154 64.8296 245.979 64.8296 235.895C64.8296 225.812 72.8494 217.637 82.7422 217.637C92.635 217.637 100.655 225.812 100.655 235.895Z" fill="black"/>
<path d="M100.655 235.895C100.655 245.979 92.635 254.154 82.7422 254.154C72.8494 254.154 64.8296 245.979 64.8296 235.895C64.8296 225.812 72.8494 217.637 82.7422 217.637C92.635 217.637 100.655 225.812 100.655 235.895Z" fill="url(#paint27_linear_9_7913)"/>
<path d="M132.896 232.244C132.896 242.327 124.876 250.502 114.984 250.502C105.091 250.502 97.072 242.327 97.072 232.244C97.072 222.157 105.091 213.982 114.984 213.982C124.876 213.982 132.896 222.157 132.896 232.244Z" fill="black"/>
<path d="M132.896 232.244C132.896 242.327 124.876 250.502 114.984 250.502C105.091 250.502 97.072 242.327 97.072 232.244C97.072 222.157 105.091 213.982 114.984 213.982C124.876 213.982 132.896 222.157 132.896 232.244Z" fill="url(#paint28_linear_9_7913)"/>
<path d="M165.855 229.322C165.855 239.405 157.835 247.58 147.943 247.58C138.049 247.58 130.029 239.405 130.029 229.322C130.029 219.239 138.049 211.062 147.943 211.062C157.835 211.062 165.855 219.239 165.855 229.322Z" fill="black"/>
<path d="M165.855 229.322C165.855 239.405 157.835 247.58 147.943 247.58C138.049 247.58 130.029 239.405 130.029 229.322C130.029 219.239 138.049 211.062 147.943 211.062C157.835 211.062 165.855 219.239 165.855 229.322Z" fill="url(#paint29_linear_9_7913)"/>
<path d="M198.099 226.4C198.099 236.486 190.079 244.661 180.184 244.661C170.293 244.661 162.273 236.486 162.273 226.4C162.273 216.316 170.293 208.141 180.184 208.141C190.079 208.141 198.099 216.316 198.099 226.4Z" fill="black"/>
<path d="M198.099 226.4C198.099 236.486 190.079 244.661 180.184 244.661C170.293 244.661 162.273 236.486 162.273 226.4C162.273 216.316 170.293 208.141 180.184 208.141C190.079 208.141 198.099 216.316 198.099 226.4Z" fill="url(#paint30_linear_9_7913)"/>
<path d="M231.058 226.4C231.058 236.486 223.038 244.661 213.144 244.661C203.252 244.661 195.232 236.486 195.232 226.4C195.232 216.316 203.252 208.141 213.144 208.141C223.038 208.141 231.058 216.316 231.058 226.4Z" fill="black"/>
<path d="M231.058 226.4C231.058 236.486 223.038 244.661 213.144 244.661C203.252 244.661 195.232 236.486 195.232 226.4C195.232 216.316 203.252 208.141 213.144 208.141C223.038 208.141 231.058 216.316 231.058 226.4Z" fill="url(#paint31_linear_9_7913)"/>
<path d="M263.299 227.862C263.299 237.946 255.279 246.121 245.388 246.121C235.496 246.121 227.476 237.946 227.476 227.862C227.476 217.776 235.496 209.602 245.388 209.602C255.279 209.602 263.299 217.776 263.299 227.862Z" fill="black"/>
<path d="M263.299 227.862C263.299 237.946 255.279 246.121 245.388 246.121C235.496 246.121 227.476 237.946 227.476 227.862C227.476 217.776 235.496 209.602 245.388 209.602C255.279 209.602 263.299 217.776 263.299 227.862Z" fill="url(#paint32_linear_9_7913)"/>
<path d="M294.107 229.322C294.107 239.405 286.09 247.58 276.196 247.58C266.304 247.58 258.285 239.405 258.285 229.322C258.285 219.239 266.304 211.062 276.196 211.062C286.09 211.062 294.107 219.239 294.107 229.322Z" fill="black"/>
<path d="M294.107 229.322C294.107 239.405 286.09 247.58 276.196 247.58C266.304 247.58 258.285 239.405 258.285 229.322C258.285 219.239 266.304 211.062 276.196 211.062C286.09 211.062 294.107 219.239 294.107 229.322Z" fill="url(#paint33_linear_9_7913)"/>
<path d="M323.485 234.433C323.485 244.519 315.465 252.694 305.573 252.694C295.681 252.694 287.662 244.519 287.662 234.433C287.662 224.35 295.681 216.175 305.573 216.175C315.465 216.175 323.485 224.35 323.485 234.433Z" fill="black"/>
<path d="M323.486 234.433C323.486 244.519 315.467 252.694 305.576 252.694C295.681 252.694 287.663 244.519 287.663 234.433C287.663 224.35 295.681 216.175 305.576 216.175C315.467 216.175 323.486 224.35 323.486 234.433Z" fill="url(#paint34_linear_9_7913)"/>
<path d="M352.146 238.817C352.146 248.901 344.126 257.076 334.232 257.076C324.34 257.076 316.32 248.901 316.32 238.817C316.32 228.731 324.34 220.556 334.232 220.556C344.126 220.556 352.146 228.731 352.146 238.817Z" fill="black"/>
<path d="M352.147 238.817C352.147 248.901 344.128 257.076 334.232 257.076C324.342 257.076 316.32 248.901 316.32 238.817C316.32 228.731 324.342 220.556 334.232 220.556C344.128 220.556 352.147 228.731 352.147 238.817Z" fill="url(#paint35_linear_9_7913)"/>
<path d="M17.0023 348.186C17.3516 319.47 18.3174 312.05 20.7668 279.054C21.5737 268.179 28.6495 258.851 38.7554 255.273C83.76 239.34 215.586 201.043 345.819 243.943C355.75 247.214 362.959 256 364.288 266.549L380.389 346.108C381.751 356.915 373.491 366.482 362.8 366.482H34.7332C24.8538 366.482 16.8797 358.258 17.0023 348.186Z" fill="black"/>
<path d="M17.0027 348.186C17.3518 319.47 18.3176 312.05 20.7672 279.055C21.5739 268.179 28.6499 258.851 38.7556 255.273C83.7601 239.34 215.588 201.043 345.819 243.943C355.749 247.214 362.959 256 364.286 266.549L380.387 346.108C381.75 356.915 373.491 366.482 362.8 366.482H34.7337C24.854 366.482 16.8802 358.258 17.0027 348.186Z" fill="url(#paint36_linear_9_7913)"/>
<path d="M414.862 241.441C414.862 246.334 410.969 250.301 406.169 250.301C401.368 250.301 397.475 246.334 397.475 241.441C397.475 236.546 401.368 232.579 406.169 232.579C410.969 232.579 414.862 236.546 414.862 241.441Z" fill="#91B3FA"/>
<path d="M366.828 277.583C366.828 279.514 365.293 281.081 363.397 281.081C361.501 281.081 359.966 279.514 359.966 277.583C359.966 275.652 361.501 274.084 363.397 274.084C365.293 274.084 366.828 275.652 366.828 277.583Z" fill="#91B3FA"/>
<path fill-rule="evenodd" clip-rule="evenodd" d="M214.604 366.277H256.672C261.271 366.277 265.077 362.623 265.347 357.943L268.163 309.548C268.444 304.735 264.893 300.575 260.177 300.195L210.47 296.174C205.091 295.737 200.629 300.354 201.13 305.831L205.952 358.244C206.37 362.796 210.119 366.277 214.604 366.277Z" fill="url(#paint37_linear_9_7913)"/>
<path d="M191.313 276.626C191.313 276.626 199.442 239.272 210.523 244.025C221.604 248.778 220.125 257.609 223.819 260.327C227.512 263.042 240.811 282.737 191.313 276.626Z" fill="black"/>
<path d="M191.313 276.626C191.313 276.626 199.442 239.272 210.523 244.025C221.604 248.778 220.125 257.609 223.819 260.327C227.512 263.042 240.811 282.737 191.313 276.626Z" fill="url(#paint38_linear_9_7913)"/>
<path d="M192.792 276.626C192.792 276.626 196.486 238.593 184.667 239.272C172.844 239.95 176.538 256.252 166.195 256.931C155.855 257.61 151.42 279.344 192.792 276.626Z" fill="black"/>
<path d="M192.792 276.626C192.792 276.626 196.486 238.593 184.667 239.272C172.844 239.95 176.538 256.252 166.195 256.931C155.855 257.61 151.42 279.344 192.792 276.626Z" fill="url(#paint39_linear_9_7913)"/>
<path d="M165.304 366.277H214.492C220.18 366.277 224.916 362.265 225.381 357.052L231.713 286.136C232.237 280.284 227.211 275.269 220.824 275.269H165.304C159.27 275.269 154.376 279.767 154.376 285.316V356.231C154.376 361.779 159.27 366.277 165.304 366.277Z" fill="#7D97F4"/>
<path d="M184.667 366.277H201.656V275.269H184.667V366.277Z" fill="black"/>
<path d="M184.667 366.277H201.656V275.269H184.667V366.277Z" fill="url(#paint40_linear_9_7913)"/>
<path d="M128.622 296.597C128.622 296.597 136.748 259.242 147.829 263.996C158.91 268.752 157.434 277.58 161.128 280.298C164.821 283.012 178.117 302.708 128.622 296.597Z" fill="black"/>
<path d="M128.622 296.597C128.622 296.597 136.748 259.242 147.829 263.996C158.91 268.752 157.434 277.58 161.128 280.298C164.821 283.012 178.117 302.708 128.622 296.597Z" fill="url(#paint41_linear_9_7913)"/>
<path d="M130.099 296.597C130.099 296.597 133.793 258.564 121.973 259.242C110.153 259.921 113.847 276.22 103.504 276.902C93.1619 277.58 88.7292 299.314 130.099 296.597Z" fill="black"/>
<path d="M130.099 296.597C130.099 296.597 133.793 258.564 121.973 259.242C110.153 259.921 113.847 276.22 103.504 276.902C93.1619 277.58 88.7292 299.314 130.099 296.597Z" fill="url(#paint42_linear_9_7913)"/>
<path d="M102.612 366.277H151.799C157.487 366.277 162.225 362.265 162.691 357.052L169.022 306.107C169.543 300.255 164.518 295.24 158.131 295.24H102.612C96.5769 295.24 91.6843 299.738 91.6843 305.283V356.231C91.6843 361.779 96.5769 366.277 102.612 366.277Z" fill="black"/>
<path d="M102.612 366.277H151.799C157.487 366.277 162.225 362.265 162.691 357.052L169.022 306.107C169.543 300.255 164.518 295.24 158.131 295.24H102.612C96.5769 295.24 91.6843 299.738 91.6843 305.283V356.231C91.6843 361.779 96.5769 366.277 102.612 366.277Z" fill="url(#paint43_linear_9_7913)"/>
<path d="M121.974 366.277H138.966V295.24H121.974V366.277Z" fill="black"/>
<path d="M121.974 366.277H138.966V295.24H121.974V366.277Z" fill="url(#paint44_linear_9_7913)"/>
<path d="M21.1268 213.809C21.1268 213.809 16.9091 194.422 11.1576 196.89C5.4062 199.357 6.17308 203.94 4.25603 205.35C2.33869 206.76 -4.56294 216.984 21.1268 213.809Z" fill="black"/>
<path d="M21.1268 213.809C21.1268 213.809 16.9091 194.422 11.1576 196.89C5.4062 199.357 6.17308 203.94 4.25603 205.35C2.33869 206.76 -4.56294 216.984 21.1268 213.809Z" fill="url(#paint45_linear_9_7913)"/>
<path d="M20.3593 213.809C20.3593 213.809 18.4423 194.07 24.577 194.422C30.712 194.775 28.7947 203.234 34.1628 203.587C39.5307 203.94 41.8314 215.22 20.3593 213.809Z" fill="black"/>
<path d="M20.3593 213.809C20.3593 213.809 18.4423 194.07 24.577 194.422C30.712 194.775 28.7947 203.234 34.1628 203.587C39.5307 203.94 41.8314 215.22 20.3593 213.809Z" fill="url(#paint46_linear_9_7913)"/>
<path d="M34.6261 249.974H9.09737C6.14491 249.974 3.68634 247.893 3.44455 245.187L0.158358 218.745C-0.113239 215.709 2.49549 213.105 5.81064 213.105H34.6261C37.7585 213.105 40.2979 215.439 40.2979 218.319V244.761C40.2979 247.64 37.7585 249.974 34.6261 249.974Z" fill="black"/>
<path d="M34.6261 249.974H9.09737C6.14491 249.974 3.68634 247.893 3.44455 245.187L0.158358 218.745C-0.113239 215.709 2.49549 213.105 5.81064 213.105H34.6261C37.7585 213.105 40.2979 215.439 40.2979 218.319V244.761C40.2979 247.64 37.7585 249.974 34.6261 249.974Z" fill="url(#paint47_linear_9_7913)"/>
<path d="M24.5772 249.974H15.7583V213.105H24.5772V249.974Z" fill="black"/>
<path d="M24.5772 249.974H15.7583V213.105H24.5772V249.974Z" fill="url(#paint48_linear_9_7913)"/>
<path d="M350.525 177.003L364.559 170.096C365.239 169.761 365.993 170.389 365.804 171.135C364.581 175.926 361.503 188.196 361.94 188.641C362.484 189.195 350.525 177.003 350.525 177.003Z" fill="black"/>
<path d="M350.525 177.003L364.559 170.096C365.238 169.762 365.991 170.389 365.804 171.135C364.581 175.927 361.501 188.196 361.938 188.641C362.482 189.195 350.525 177.003 350.525 177.003Z" fill="url(#paint49_linear_9_7913)"/>
<path d="M322.794 214.277C322.794 214.277 325.546 201.624 329.304 203.235C333.055 204.845 332.557 207.836 333.807 208.756C335.058 209.677 339.561 216.35 322.794 214.277Z" fill="#91B3FA"/>
<path d="M323.295 214.278C323.295 214.278 324.546 201.395 320.54 201.625C316.536 201.855 317.788 207.377 314.283 207.607C310.784 207.837 309.277 215.201 323.295 214.278Z" fill="#91B3FA"/>
<path d="M314.323 234.598H330.983C332.911 234.598 334.515 233.241 334.674 231.474L336.479 217.501C336.655 215.519 334.953 213.818 332.788 213.818H313.983C311.938 213.818 310.281 215.343 310.281 217.223L310.62 231.196C310.62 233.076 312.278 234.598 314.323 234.598Z" fill="black"/>
<path d="M314.322 234.598H330.984C332.91 234.598 334.515 233.24 334.673 231.474L336.481 217.501C336.654 215.519 334.952 213.818 332.789 213.818H313.982C311.937 213.818 310.281 215.343 310.281 217.222L310.621 231.196C310.621 233.076 312.277 234.598 314.322 234.598Z" fill="url(#paint50_linear_9_7913)"/>
<path d="M320.882 234.597H326.639L326.3 213.817H320.543L320.882 234.597Z" fill="#91B3FA"/>
<path d="M342.062 297.948L341.578 307.026C341.578 307.026 344.347 337.413 344.926 350.867C345.015 352.976 344.48 355.061 343.394 356.858L337.731 366.231L352.127 357.574L352.414 355.785L350.057 352.482L353.143 314.804C353.325 312.589 352.876 310.371 351.851 308.409L348.876 302.707L342.062 297.948Z" fill="black"/>
<path d="M342.062 297.948L341.575 307.026C341.575 307.026 344.346 337.413 344.924 350.867C345.015 352.976 344.481 355.06 343.394 356.858L337.731 366.231L352.126 357.574L352.412 355.785L350.056 352.482L353.144 314.804C353.323 312.589 352.874 310.372 351.85 308.409L348.875 302.707L342.062 297.948Z" fill="url(#paint51_linear_9_7913)"/>
<path d="M336.783 367.592H341.377C342.237 367.592 343.048 367.188 343.572 366.493C345.003 364.599 347.97 360.896 349.388 360.799C351.299 360.669 351.054 367.592 351.054 367.592H352.126L353.483 358.991C353.823 356.827 352.767 354.683 350.862 353.669C350.862 353.669 350.424 356.96 348.056 358.417C345.689 359.871 338.424 365.084 338.424 365.084C338.424 365.084 337.535 364.956 336.557 365.135C335.106 365.402 335.31 367.592 336.783 367.592Z" fill="black"/>
<path d="M336.784 367.592H341.376C342.238 367.592 343.049 367.188 343.574 366.493C345.004 364.599 347.971 360.896 349.389 360.799C351.3 360.669 351.055 367.592 351.055 367.592H352.127L353.485 358.991C353.825 356.827 352.768 354.683 350.863 353.669C350.863 353.669 350.426 356.96 348.056 358.417C345.689 359.871 338.425 365.084 338.425 365.084C338.425 365.084 337.535 364.957 336.557 365.135C335.108 365.402 335.309 367.592 336.784 367.592Z" fill="url(#paint52_linear_9_7913)"/>
<path d="M354.438 297.948L353.466 303.781C353.466 303.781 356.723 337.413 357.302 350.867C357.394 352.976 356.859 355.061 355.773 356.858L350.109 366.231L364.503 357.574L364.79 355.785L362.433 352.482L365.52 314.804C365.701 312.589 365.252 310.371 364.23 308.409L361.252 302.707L354.438 297.948Z" fill="black"/>
<path d="M354.437 297.948L353.465 303.781C353.465 303.781 356.721 337.413 357.303 350.867C357.393 352.976 356.859 355.061 355.772 356.858L350.109 366.231L364.503 357.573L364.789 355.785L362.431 352.482L365.52 314.804C365.7 312.589 365.253 310.371 364.229 308.409L361.25 302.707L354.437 297.948Z" fill="url(#paint53_linear_9_7913)"/>
<path d="M370.868 259.359C370.086 252.927 362.188 246.859 362.188 246.859C352.208 250.502 345.093 245.113 345.093 245.113C345.093 245.113 341.987 251.621 341.956 258.249C341.923 264.876 341.525 307.43 341.525 307.43C353.063 312.359 364.974 309.943 364.974 309.943C364.083 294.621 371.651 265.79 370.868 259.359Z" fill="black"/>
<path d="M370.868 259.359C370.084 252.927 362.187 246.859 362.187 246.859C352.206 250.502 345.092 245.113 345.092 245.113C345.092 245.113 341.985 251.621 341.956 258.249C341.924 264.876 341.524 307.43 341.524 307.43C353.061 312.359 364.972 309.943 364.972 309.943C364.082 294.62 371.651 265.79 370.868 259.359Z" fill="url(#paint54_linear_9_7913)"/>
<path d="M347.904 180.816C347.904 180.816 356.283 174.823 360.757 185.522C361.576 187.477 366.292 187.801 366.776 191.771C367.024 193.821 368.512 195.462 370.515 195.776C375.504 196.555 383.192 199.196 384.42 208.024C385.359 214.763 381.988 217.319 378.454 218.202C375.855 218.852 374.13 221.428 374.654 224.1C375.158 226.664 374.406 229.628 370.049 231.974C360.283 237.227 350.531 219.528 350.531 219.528L348.533 188.629L347.904 180.816Z" fill="black"/>
<path d="M347.904 180.816C347.904 180.816 356.282 174.823 360.756 185.522C361.573 187.477 366.29 187.801 366.773 191.772C367.023 193.821 368.51 195.463 370.514 195.776C375.501 196.555 383.189 199.196 384.419 208.024C385.356 214.763 381.986 217.319 378.452 218.202C375.855 218.852 374.128 221.428 374.651 224.1C375.158 226.664 374.404 229.629 370.047 231.974C360.282 237.227 350.531 219.528 350.531 219.528L348.531 188.629L347.904 180.816Z" fill="url(#paint55_linear_9_7913)"/>
<path d="M349.16 367.592H353.754C354.615 367.592 355.425 367.188 355.949 366.493C357.381 364.599 360.35 360.896 361.768 360.799C363.676 360.669 363.434 367.592 363.434 367.592H364.503L365.86 358.991C366.2 356.827 365.144 354.683 363.239 353.669C363.239 353.669 362.801 356.96 360.436 358.417C358.069 359.871 350.801 365.084 350.801 365.084C350.801 365.084 349.912 364.956 348.935 365.135C347.486 365.402 347.689 367.592 349.16 367.592Z" fill="black"/>
<path d="M349.161 367.592H353.752C354.614 367.592 355.426 367.188 355.947 366.493C357.38 364.599 360.348 360.896 361.768 360.799C363.677 360.669 363.432 367.592 363.432 367.592H364.504L365.86 358.991C366.198 356.827 365.145 354.683 363.239 353.669C363.239 353.669 362.801 356.96 360.435 358.417C358.069 359.871 350.799 365.084 350.799 365.084C350.799 365.084 349.911 364.957 348.935 365.136C347.487 365.402 347.69 367.592 349.161 367.592Z" fill="url(#paint56_linear_9_7913)"/>
<path d="M362.102 247.103C359.032 233.831 362.732 224.156 365.951 218.761C367.945 215.419 366.432 211.036 362.849 209.635C357.103 207.389 350.536 206.96 347.165 206.901C345.714 206.876 344.347 207.579 343.488 208.771C341.045 212.146 336.436 219.491 337.642 225.425C338.592 230.102 345.007 248.801 345.007 248.801C345.007 248.801 353.018 252.665 362.102 247.103Z" fill="#7D97F4"/>
<path d="M352.982 191.995L356.183 208.16C356.567 209.774 354.28 210.124 352.656 210.26C349.879 210.491 348.322 209.82 347.193 207.741C347.076 207.529 347.021 207.29 346.987 207.05L345.269 194.343C345.132 193.335 345.667 192.357 346.578 191.945L349.895 190.445C351.174 189.867 352.653 190.61 352.982 191.995Z" fill="black"/>
<path d="M352.981 191.995L356.182 208.16C356.565 209.774 354.28 210.124 352.656 210.26C349.878 210.491 348.321 209.82 347.192 207.741C347.076 207.529 347.019 207.29 346.987 207.05L345.268 194.343C345.132 193.335 345.666 192.357 346.576 191.944L349.894 190.445C351.174 189.867 352.653 190.61 352.981 191.995Z" fill="url(#paint57_linear_9_7913)"/>
<path d="M346.288 180.102C346.288 180.102 342.382 182.729 340.636 189.519C338.889 196.31 341.566 198.786 344.34 198.671C347.118 198.555 351.151 197.73 354.695 192.887C358.238 188.044 351.408 176.896 346.288 180.102Z" fill="black"/>
<path d="M346.288 180.102C346.288 180.102 342.381 182.729 340.635 189.519C338.89 196.31 341.566 198.786 344.341 198.671C347.118 198.555 351.149 197.73 354.694 192.887C358.236 188.044 351.408 176.896 346.288 180.102Z" fill="url(#paint58_linear_9_7913)"/>
<path d="M351.212 190.097C351.212 190.097 352.75 180.355 344.78 181.749L343.153 183.435C343.153 183.435 339.318 178.92 343.663 175.597C348.009 172.274 353.973 173.213 357.207 179.401C360.438 185.588 361.586 189.922 358.769 193.708C355.953 197.493 353.909 194.191 353.909 194.191C353.909 194.191 355.218 190.901 354.182 189.469C353.145 188.038 351.758 190.265 351.758 190.265L351.212 190.097Z" fill="black"/>
<path d="M351.212 190.097C351.212 190.097 352.75 180.355 344.781 181.749L343.153 183.436C343.153 183.436 339.319 178.92 343.663 175.597C348.011 172.274 353.974 173.213 357.206 179.401C360.439 185.588 361.586 189.922 358.77 193.708C355.955 197.493 353.91 194.191 353.91 194.191C353.91 194.191 355.219 190.901 354.184 189.47C353.145 188.038 351.76 190.265 351.76 190.265L351.212 190.097Z" fill="url(#paint59_linear_9_7913)"/>
<path d="M352.288 190.946C352.288 190.946 353.051 185.934 355.55 187.4C358.049 188.867 354.586 192.079 353.202 193.17L352.288 190.946Z" fill="black"/>
<path d="M352.289 190.946C352.289 190.946 353.054 185.934 355.551 187.4C358.048 188.866 354.587 192.079 353.202 193.17L352.289 190.946Z" fill="url(#paint60_linear_9_7913)"/>
<path d="M319.864 232.48C319.582 231.994 320.028 231.401 320.56 231.557C322.535 232.142 326.179 232.837 328.691 231.068C328.819 230.98 328.942 230.898 329.064 230.818C328.805 230.506 328.432 230.268 327.878 230.282C326.29 230.327 325.571 227.993 325.571 227.993C325.571 227.993 326.984 228.76 328.479 228.243C329.766 227.8 331.672 228.396 332.641 229.864C336.847 234.322 342.274 240.45 351.742 235.836C358.773 232.409 358.804 222.277 358.352 217.285C358.177 215.334 359.333 213.483 361.166 212.896C363.589 212.117 365.592 212.531 367.088 214.389C367.84 215.32 368.183 216.521 368.116 217.725C367.823 223.007 365.943 240.178 353.943 243.821C339.717 248.14 331.335 234.073 331.335 234.073C331.335 234.073 323.997 239.576 319.864 232.48Z" fill="black"/>
<path d="M319.864 232.48C319.583 231.994 320.026 231.401 320.559 231.557C322.534 232.142 326.178 232.837 328.69 231.068C328.819 230.98 328.942 230.898 329.065 230.819C328.806 230.506 328.431 230.268 327.878 230.282C326.288 230.327 325.57 227.993 325.57 227.993C325.57 227.993 326.983 228.76 328.479 228.243C329.766 227.8 331.67 228.396 332.64 229.865C336.846 234.323 342.274 240.45 351.74 235.836C358.771 232.409 358.803 222.277 358.351 217.285C358.176 215.334 359.33 213.483 361.163 212.896C363.588 212.118 365.592 212.531 367.086 214.389C367.839 215.32 368.182 216.521 368.114 217.725C367.823 223.007 365.942 240.178 353.941 243.821C339.717 248.14 331.334 234.073 331.334 234.073C331.334 234.073 323.995 239.576 319.864 232.48Z" fill="url(#paint61_linear_9_7913)"/>
<path d="M407.064 179.165L420.886 168.206C421.207 167.953 421.663 168.217 421.616 168.625L419.569 186.37L407.064 179.165Z" fill="black"/>
<path d="M407.064 179.165L420.888 168.205C421.209 167.953 421.664 168.217 421.618 168.625L419.571 186.37L407.064 179.165Z" fill="url(#paint62_linear_9_7913)"/>
<path d="M462.668 292.102C462.668 292.102 464.894 288.745 467.323 285.639C468.273 284.424 469.936 284.168 470.975 285.065C474.501 288.121 482.02 294.683 484.493 297.284C484.864 297.673 484.702 298.372 484.178 298.65C483.741 298.88 483.251 298.939 482.811 298.812L465.133 293.72L462.668 292.102Z" fill="black"/>
<path d="M462.668 292.102C462.668 292.102 464.89 288.745 467.322 285.639C468.27 284.424 469.936 284.168 470.974 285.065C474.5 288.121 482.017 294.683 484.492 297.284C484.863 297.673 484.702 298.372 484.176 298.65C483.738 298.88 483.249 298.94 482.81 298.812L465.131 293.721L462.668 292.102Z" fill="url(#paint63_linear_9_7913)"/>
<path d="M460.762 293.504L464.372 290.392C464.372 290.392 467.732 291.508 468.186 294.279L463.645 297.258L460.762 293.504Z" fill="black"/>
<path d="M460.594 293.561L464.206 290.449C464.206 290.449 467.564 291.565 468.018 294.336L463.479 297.315L460.594 293.561Z" fill="#FEB3B1"/>
<path d="M380.757 210.378C375.125 197.493 369.807 178.238 376.002 158.993L379.59 155.335C379.59 155.335 379.593 185.477 386.95 200.446C384.894 203.761 382.835 207.077 380.757 210.378Z" fill="black"/>
<path d="M380.759 210.378C375.124 197.493 369.807 178.238 376.002 158.993L379.591 155.334C379.591 155.334 379.594 185.476 386.95 200.445C384.895 203.76 382.835 207.077 380.759 210.378Z" fill="#FEB3B1"/>
<path d="M380.45 149.574L381.807 151.645C382.178 152.216 382.275 152.925 382.066 153.575C381.515 155.273 380.272 158.612 378.52 160.397C376.108 162.857 373.695 156.953 373.213 154.986C372.729 153.018 376.108 148.098 377.074 147.115C378.038 146.131 381.899 146.623 380.45 149.574Z" fill="black"/>
<path d="M380.452 149.575L381.81 151.645C382.178 152.216 382.278 152.925 382.068 153.575C381.514 155.273 380.273 158.612 378.52 160.397C376.108 162.857 373.698 156.953 373.213 154.986C372.729 153.018 376.108 148.098 377.077 147.115C378.039 146.131 381.899 146.623 380.452 149.575Z" fill="#FEB3B1"/>
<path d="M398.938 352.363C398.938 352.363 399.632 356.364 399.972 360.325C400.106 361.875 398.936 363.219 397.412 363.284C392.236 363.503 381.166 363.931 377.197 363.75C376.598 363.721 376.208 363.099 376.428 362.534C376.614 362.06 376.971 361.677 377.425 361.461L395.71 352.897L398.938 352.363Z" fill="black"/>
<path d="M398.938 352.363C398.938 352.363 399.631 356.364 399.97 360.325C400.104 361.876 398.935 363.219 397.412 363.284C392.236 363.503 381.165 363.931 377.195 363.75C376.599 363.721 376.208 363.099 376.427 362.534C376.613 362.06 376.969 361.677 377.425 361.461L395.709 352.897L398.938 352.363Z" fill="url(#paint64_linear_9_7913)"/>
<path d="M399.507 350.012L398.95 354.799C398.95 354.799 395.747 356.318 393.56 354.606L394.886 349.273L399.507 350.012Z" fill="black"/>
<path d="M399.506 350.011L398.947 354.799C398.947 354.799 395.745 356.318 393.559 354.606L394.885 349.273L399.506 350.011Z" fill="#FEB3B1"/>
<path d="M399.088 260.023C399.328 261.276 400.381 322.4 393.971 349.793C393.865 350.242 394.088 350.702 394.506 350.875C395.489 351.284 397.414 351.878 399.726 351.957C400.442 351.983 401.083 351.509 401.283 350.807C403.116 344.452 415.704 307.677 416.849 277.257C418.131 243.267 412.289 260.021 412.289 260.021L399.088 260.023Z" fill="black"/>
<path d="M399.087 260.024C399.327 261.276 400.38 322.4 393.971 349.794C393.865 350.242 394.088 350.702 394.505 350.875C395.49 351.284 397.416 351.878 399.726 351.957C400.444 351.983 401.083 351.509 401.284 350.807C403.118 344.452 415.706 307.677 416.85 277.257C418.129 243.267 412.289 260.021 412.289 260.021L399.087 260.024Z" fill="url(#paint65_linear_9_7913)"/>
<path d="M426.786 261.119C432.163 274.937 433.918 277.098 436.319 292.871C439.193 311.789 453.236 298.727 460.732 292.585C461.679 291.809 464.495 294.589 464.771 298.497C465.128 303.594 434.837 327.79 426.642 310.684C421.41 299.76 419.959 287.462 416.485 280.661C416.051 279.812 415.343 279.145 414.48 278.767L403.786 274.099L400.769 263.402L426.786 261.119Z" fill="black"/>
<path d="M426.789 261.119C432.164 274.937 433.92 277.097 436.319 292.871C439.196 311.789 453.237 298.727 460.732 292.585C461.68 291.809 464.496 294.589 464.772 298.497C465.128 303.594 434.838 327.79 426.643 310.684C421.409 299.76 419.959 287.462 416.485 280.661C416.049 279.812 415.345 279.145 414.481 278.767L403.787 274.099L400.769 263.402L426.789 261.119Z" fill="url(#paint66_linear_9_7913)"/>
<path d="M432.637 212.04C438.269 199.155 443.587 179.9 437.392 160.656L433.804 156.997C433.804 156.997 433.801 187.139 426.444 202.108C428.503 205.423 430.558 208.739 432.637 212.04Z" fill="black"/>
<path d="M432.636 212.04C438.27 199.156 443.587 179.9 437.391 160.656L433.805 156.997C433.805 156.997 433.801 187.14 426.444 202.108C428.502 205.423 430.56 208.74 432.636 212.04Z" fill="#FEB3B1"/>
<path d="M399.081 207.429H416.769C418.547 207.429 420.254 206.735 421.541 205.486C423.19 203.887 425.31 201.176 426.812 196.91C427.04 196.262 427.723 195.907 428.369 196.102C430.645 196.79 435.625 198.758 438.238 203.343C438.483 203.772 438.478 204.304 438.213 204.72L427.179 222.127L428.269 265.067C428.269 265.067 400.541 269.499 396.735 265.067L392.93 225.719C392.93 225.719 379.337 217.404 375.531 204.104L386.95 197.454C386.95 197.454 388.278 197.509 389.415 200.626C390.908 204.731 394.785 207.429 399.081 207.429Z" fill="black"/>
<path d="M399.08 207.429H416.766C418.547 207.429 420.254 206.735 421.54 205.486C423.189 203.887 425.307 201.176 426.809 196.909C427.04 196.262 427.721 195.906 428.366 196.102C430.641 196.789 435.625 198.758 438.237 203.342C438.482 203.772 438.475 204.304 438.211 204.72L427.179 222.127L428.267 265.067C428.267 265.067 400.538 269.499 396.735 265.067L392.928 225.718C392.928 225.718 379.334 217.404 375.531 204.104L386.948 197.454C386.948 197.454 388.278 197.509 389.414 200.626C390.905 204.73 394.785 207.429 399.08 207.429Z" fill="url(#paint67_linear_9_7913)"/>
<path d="M414.226 194.311L414.636 208.228C414.661 209.119 414.115 209.923 413.285 210.203C411.583 210.777 408.507 211.488 405.064 210.73C404.039 210.504 403.385 209.471 403.563 208.416L405.435 197.453L414.226 194.311Z" fill="black"/>
<path d="M414.223 194.311L414.635 208.227C414.659 209.119 414.114 209.923 413.284 210.203C411.581 210.777 408.506 211.488 405.062 210.73C404.038 210.504 403.383 209.471 403.563 208.416L405.435 197.453L414.223 194.311Z" fill="#FEB3B1"/>
<path d="M404.87 181.568C404.747 181.726 400.619 193.174 398.803 198.219C398.343 199.496 399.028 200.902 400.301 201.307L404.293 202.05C406.939 202.542 409.569 201.104 410.627 198.585L415.435 192.876C418.048 189.773 417.151 184.973 413.575 183.115C410.056 181.286 406.196 179.874 404.87 181.568Z" fill="black"/>
<path d="M404.867 181.568C404.747 181.725 400.618 193.174 398.802 198.218C398.343 199.496 399.028 200.902 400.3 201.307L404.291 202.05C406.937 202.542 409.569 201.104 410.625 198.585L415.436 192.876C418.046 189.773 417.149 184.973 413.574 183.115C410.056 181.286 406.195 179.874 404.867 181.568Z" fill="#FEB3B1"/>
<path d="M412.814 194.156L411.672 193.574C411.672 193.574 416.243 186.003 411.101 185.421C405.959 184.839 401.387 183.674 401.387 180.762C401.387 177.851 401.387 172.609 407.672 174.939C413.956 177.268 413.385 181.345 416.814 181.927C420.24 182.509 423.098 183.092 421.954 186.586C420.811 190.08 418.527 192.409 419.669 193.574C420.811 194.739 415.672 200.562 412.814 194.156Z" fill="black"/>
<path d="M412.815 194.157L411.675 193.574C411.675 193.574 416.244 186.003 411.104 185.421C405.961 184.839 401.387 183.674 401.387 180.762C401.387 177.85 401.387 172.609 407.675 174.939C413.956 177.268 413.386 181.344 416.815 181.927C420.244 182.509 423.099 183.092 421.955 186.586C420.814 190.08 418.529 192.409 419.67 193.574C420.814 194.739 415.674 200.562 412.815 194.157Z" fill="url(#paint68_linear_9_7913)"/>
<path d="M411.594 196.425C411.594 196.425 412.543 191.305 414.663 191.178C416.783 191.051 418.73 192.937 416.471 195.708C413.661 199.153 411.594 196.425 411.594 196.425Z" fill="black"/>
<path d="M411.594 196.425C411.594 196.425 412.545 191.305 414.663 191.178C416.784 191.051 418.729 192.937 416.473 195.708C413.662 199.153 411.594 196.425 411.594 196.425Z" fill="#FEB3B1"/>
<path d="M432.943 151.237L431.589 153.308C431.216 153.878 431.118 154.587 431.33 155.238C431.879 156.936 433.121 160.275 434.873 162.06C437.285 164.52 439.698 158.616 440.182 156.648C440.664 154.681 437.285 149.761 436.322 148.778C435.355 147.794 431.494 148.286 432.943 151.237Z" fill="black"/>
<path d="M432.941 151.237L431.588 153.308C431.213 153.878 431.118 154.587 431.331 155.238C431.878 156.936 433.121 160.275 434.874 162.06C437.285 164.52 439.695 158.616 440.181 156.648C440.662 154.681 437.285 149.761 436.322 148.778C435.355 147.793 431.493 148.286 432.941 151.237Z" fill="#FEB3B1"/>
<defs>
<linearGradient id="paint0_linear_9_7913" x1="240.142" y1="126.561" x2="210.066" y2="130.906" gradientUnits="userSpaceOnUse">
<stop stop-color="#4042E2"/>
<stop offset="1" stop-color="#4F52FF"/>
</linearGradient>
<linearGradient id="paint1_linear_9_7913" x1="206.725" y1="138.937" x2="176.969" y2="143.236" gradientUnits="userSpaceOnUse">
<stop stop-color="#4042E2"/>
<stop offset="1" stop-color="#4F52FF"/>
</linearGradient>
<linearGradient id="paint2_linear_9_7913" x1="173.685" y1="151.552" x2="146.116" y2="155.535" gradientUnits="userSpaceOnUse">
<stop stop-color="#4042E2"/>
<stop offset="1" stop-color="#4F52FF"/>
</linearGradient>
<linearGradient id="paint3_linear_9_7913" x1="143.696" y1="158.233" x2="114.49" y2="162.453" gradientUnits="userSpaceOnUse">
<stop stop-color="#4042E2"/>
<stop offset="1" stop-color="#4F52FF"/>
</linearGradient>
<linearGradient id="paint4_linear_9_7913" x1="226.412" y1="56.7162" x2="226.412" y2="154.149" gradientUnits="userSpaceOnUse">
<stop stop-color="#FE7062"/>
<stop offset="1" stop-color="#FF928E"/>
</linearGradient>
<linearGradient id="paint5_linear_9_7913" x1="219.991" y1="-24.8477" x2="224.04" y2="113.399" gradientUnits="userSpaceOnUse">
<stop stop-color="#FF928E"/>
<stop offset="1" stop-color="#FEB3B1"/>
</linearGradient>
<linearGradient id="paint6_linear_9_7913" x1="220.551" y1="46.4282" x2="224.52" y2="46.4282" gradientUnits="userSpaceOnUse">
<stop stop-color="#E1473D"/>
<stop offset="1" stop-color="#E9605A"/>
</linearGradient>
<linearGradient id="paint7_linear_9_7913" x1="140.596" y1="56.7161" x2="140.596" y2="154.15" gradientUnits="userSpaceOnUse">
<stop stop-color="#FE7062"/>
<stop offset="1" stop-color="#FF928E"/>
</linearGradient>
<linearGradient id="paint8_linear_9_7913" x1="140.936" y1="-22.5307" x2="144.985" y2="115.716" gradientUnits="userSpaceOnUse">
<stop stop-color="#FF928E"/>
<stop offset="1" stop-color="#FEB3B1"/>
</linearGradient>
<linearGradient id="paint9_linear_9_7913" x1="140.565" y1="48.6857" x2="143.958" y2="48.6857" gradientUnits="userSpaceOnUse">
<stop stop-color="#E1473D"/>
<stop offset="1" stop-color="#E9605A"/>
</linearGradient>
<linearGradient id="paint10_linear_9_7913" x1="186.26" y1="56.716" x2="186.26" y2="154.149" gradientUnits="userSpaceOnUse">
<stop stop-color="#FE7062"/>
<stop offset="1" stop-color="#FF928E"/>
</linearGradient>
<linearGradient id="paint11_linear_9_7913" x1="181.388" y1="-23.7148" x2="185.438" y2="114.532" gradientUnits="userSpaceOnUse">
<stop stop-color="#FF928E"/>
<stop offset="1" stop-color="#FEB3B1"/>
</linearGradient>
<linearGradient id="paint12_linear_9_7913" x1="181.864" y1="44.6335" x2="185.834" y2="44.6335" gradientUnits="userSpaceOnUse">
<stop stop-color="#E1473D"/>
<stop offset="1" stop-color="#E9605A"/>
</linearGradient>
<linearGradient id="paint13_linear_9_7913" x1="187.24" y1="200.091" x2="205.992" y2="-28.3986" gradientUnits="userSpaceOnUse">
<stop stop-color="#FE7062"/>
<stop offset="1" stop-color="#FF928E"/>
</linearGradient>
<linearGradient id="paint14_linear_9_7913" x1="178.257" y1="154.638" x2="229.517" y2="-103.561" gradientUnits="userSpaceOnUse">
<stop stop-color="#E1473D"/>
<stop offset="1" stop-color="#E9605A"/>
</linearGradient>
<linearGradient id="paint15_linear_9_7913" x1="96.0042" y1="155.043" x2="108.964" y2="309.426" gradientUnits="userSpaceOnUse">
<stop stop-color="#E1473D"/>
<stop offset="1" stop-color="#E9605A"/>
</linearGradient>
<linearGradient id="paint16_linear_9_7913" x1="116.056" y1="153.36" x2="129.016" y2="307.742" gradientUnits="userSpaceOnUse">
<stop stop-color="#E1473D"/>
<stop offset="1" stop-color="#E9605A"/>
</linearGradient>
<linearGradient id="paint17_linear_9_7913" x1="137.158" y1="151.589" x2="150.118" y2="305.971" gradientUnits="userSpaceOnUse">
<stop stop-color="#E1473D"/>
<stop offset="1" stop-color="#E9605A"/>
</linearGradient>
<linearGradient id="paint18_linear_9_7913" x1="158.689" y1="149.781" x2="171.649" y2="304.164" gradientUnits="userSpaceOnUse">
<stop stop-color="#E1473D"/>
<stop offset="1" stop-color="#E9605A"/>
</linearGradient>
<linearGradient id="paint19_linear_9_7913" x1="179.75" y1="148.013" x2="192.71" y2="302.395" gradientUnits="userSpaceOnUse">
<stop stop-color="#E1473D"/>
<stop offset="1" stop-color="#E9605A"/>
</linearGradient>
<linearGradient id="paint20_linear_9_7913" x1="201.127" y1="146.219" x2="214.087" y2="300.601" gradientUnits="userSpaceOnUse">
<stop stop-color="#E1473D"/>
<stop offset="1" stop-color="#E9605A"/>
</linearGradient>
<linearGradient id="paint21_linear_9_7913" x1="221.961" y1="144.469" x2="234.921" y2="298.852" gradientUnits="userSpaceOnUse">
<stop stop-color="#E1473D"/>
<stop offset="1" stop-color="#E9605A"/>
</linearGradient>
<linearGradient id="paint22_linear_9_7913" x1="241.864" y1="142.798" x2="254.824" y2="297.181" gradientUnits="userSpaceOnUse">
<stop stop-color="#E1473D"/>
<stop offset="1" stop-color="#E9605A"/>
</linearGradient>
<linearGradient id="paint23_linear_9_7913" x1="260.65" y1="141.222" x2="273.61" y2="295.604" gradientUnits="userSpaceOnUse">
<stop stop-color="#E1473D"/>
<stop offset="1" stop-color="#E9605A"/>
</linearGradient>
<linearGradient id="paint24_linear_9_7913" x1="279.007" y1="139.681" x2="291.967" y2="294.063" gradientUnits="userSpaceOnUse">
<stop stop-color="#E1473D"/>
<stop offset="1" stop-color="#E9605A"/>
</linearGradient>
<linearGradient id="paint25_linear_9_7913" x1="206.54" y1="265.056" x2="207.978" y2="109.875" gradientUnits="userSpaceOnUse">
<stop stop-color="#FE7062"/>
<stop offset="1" stop-color="#FF928E"/>
</linearGradient>
<linearGradient id="paint26_linear_9_7913" x1="49.3717" y1="205.554" x2="69.2207" y2="441.995" gradientUnits="userSpaceOnUse">
<stop stop-color="#E1473D"/>
<stop offset="1" stop-color="#E9605A"/>
</linearGradient>
<linearGradient id="paint27_linear_9_7913" x1="80.0825" y1="202.976" x2="99.9314" y2="439.417" gradientUnits="userSpaceOnUse">
<stop stop-color="#E1473D"/>
<stop offset="1" stop-color="#E9605A"/>
</linearGradient>
<linearGradient id="paint28_linear_9_7913" x1="112.401" y1="200.263" x2="132.25" y2="436.704" gradientUnits="userSpaceOnUse">
<stop stop-color="#E1473D"/>
<stop offset="1" stop-color="#E9605A"/>
</linearGradient>
<linearGradient id="paint29_linear_9_7913" x1="145.372" y1="197.495" x2="165.221" y2="433.936" gradientUnits="userSpaceOnUse">
<stop stop-color="#E1473D"/>
<stop offset="1" stop-color="#E9605A"/>
</linearGradient>
<linearGradient id="paint30_linear_9_7913" x1="177.633" y1="194.787" x2="197.482" y2="431.228" gradientUnits="userSpaceOnUse">
<stop stop-color="#E1473D"/>
<stop offset="1" stop-color="#E9605A"/>
</linearGradient>
<linearGradient id="paint31_linear_9_7913" x1="210.369" y1="192.039" x2="230.218" y2="428.479" gradientUnits="userSpaceOnUse">
<stop stop-color="#E1473D"/>
<stop offset="1" stop-color="#E9605A"/>
</linearGradient>
<linearGradient id="paint32_linear_9_7913" x1="242.276" y1="189.36" x2="262.125" y2="425.801" gradientUnits="userSpaceOnUse">
<stop stop-color="#E1473D"/>
<stop offset="1" stop-color="#E9605A"/>
</linearGradient>
<linearGradient id="paint33_linear_9_7913" x1="272.761" y1="186.801" x2="292.61" y2="423.242" gradientUnits="userSpaceOnUse">
<stop stop-color="#E1473D"/>
<stop offset="1" stop-color="#E9605A"/>
</linearGradient>
<linearGradient id="paint34_linear_9_7913" x1="330.164" y1="171.1" x2="351.247" y2="422.247" gradientUnits="userSpaceOnUse">
<stop stop-color="#E1473D"/>
<stop offset="1" stop-color="#E9605A"/>
</linearGradient>
<linearGradient id="paint35_linear_9_7913" x1="390.861" y1="154.96" x2="413.198" y2="421.034" gradientUnits="userSpaceOnUse">
<stop stop-color="#E1473D"/>
<stop offset="1" stop-color="#E9605A"/>
</linearGradient>
<linearGradient id="paint36_linear_9_7913" x1="265.592" y1="378.268" x2="268.114" y2="106.141" gradientUnits="userSpaceOnUse">
<stop stop-color="#FE7062"/>
<stop offset="1" stop-color="#FF928E"/>
</linearGradient>
<linearGradient id="paint37_linear_9_7913" x1="269.247" y1="305.371" x2="230.856" y2="331.874" gradientUnits="userSpaceOnUse">
<stop stop-color="#4042E2"/>
<stop offset="1" stop-color="#4F52FF"/>
</linearGradient>
<linearGradient id="paint38_linear_9_7913" x1="214.403" y1="259.37" x2="201.536" y2="291.374" gradientUnits="userSpaceOnUse">
<stop stop-color="#4042E2"/>
<stop offset="1" stop-color="#4F52FF"/>
</linearGradient>
<linearGradient id="paint39_linear_9_7913" x1="182.725" y1="252.379" x2="169.283" y2="285.811" gradientUnits="userSpaceOnUse">
<stop stop-color="#4042E2"/>
<stop offset="1" stop-color="#4F52FF"/>
</linearGradient>
<linearGradient id="paint40_linear_9_7913" x1="198.344" y1="307.379" x2="167.123" y2="385.03" gradientUnits="userSpaceOnUse">
<stop stop-color="#4042E2"/>
<stop offset="1" stop-color="#4F52FF"/>
</linearGradient>
<linearGradient id="paint41_linear_9_7913" x1="190.928" y1="173.196" x2="148.296" y2="283.966" gradientUnits="userSpaceOnUse">
<stop stop-color="#09005D"/>
<stop offset="1" stop-color="#1A0F91"/>
</linearGradient>
<linearGradient id="paint42_linear_9_7913" x1="160.777" y1="161.592" x2="118.145" y2="272.362" gradientUnits="userSpaceOnUse">
<stop stop-color="#09005D"/>
<stop offset="1" stop-color="#1A0F91"/>
</linearGradient>
<linearGradient id="paint43_linear_9_7913" x1="172.919" y1="270.998" x2="75.9385" y2="392.999" gradientUnits="userSpaceOnUse">
<stop stop-color="#4042E2"/>
<stop offset="1" stop-color="#4F52FF"/>
</linearGradient>
<linearGradient id="paint44_linear_9_7913" x1="189.088" y1="172.488" x2="146.456" y2="283.258" gradientUnits="userSpaceOnUse">
<stop stop-color="#09005D"/>
<stop offset="1" stop-color="#1A0F91"/>
</linearGradient>
<linearGradient id="paint45_linear_9_7913" x1="1.96681" y1="205.545" x2="21.1269" y2="205.545" gradientUnits="userSpaceOnUse">
<stop stop-color="#E1473D"/>
<stop offset="1" stop-color="#E9605A"/>
</linearGradient>
<linearGradient id="paint46_linear_9_7913" x1="20.0757" y1="204.175" x2="37.8175" y2="204.175" gradientUnits="userSpaceOnUse">
<stop stop-color="#E1473D"/>
<stop offset="1" stop-color="#E9605A"/>
</linearGradient>
<linearGradient id="paint47_linear_9_7913" x1="24.7561" y1="189.327" x2="21.2844" y2="220.405" gradientUnits="userSpaceOnUse">
<stop stop-color="#09005D"/>
<stop offset="1" stop-color="#1A0F91"/>
</linearGradient>
<linearGradient id="paint48_linear_9_7913" x1="15.7585" y1="231.54" x2="24.5774" y2="231.54" gradientUnits="userSpaceOnUse">
<stop stop-color="#E1473D"/>
<stop offset="1" stop-color="#E9605A"/>
</linearGradient>
<linearGradient id="paint49_linear_9_7913" x1="438.659" y1="138.632" x2="435.992" y2="155.637" gradientUnits="userSpaceOnUse">
<stop stop-color="#4042E2"/>
<stop offset="1" stop-color="#4F52FF"/>
</linearGradient>
<linearGradient id="paint50_linear_9_7913" x1="377.719" y1="200.857" x2="342.489" y2="223.136" gradientUnits="userSpaceOnUse">
<stop stop-color="#4042E2"/>
<stop offset="1" stop-color="#4F52FF"/>
</linearGradient>
<linearGradient id="paint51_linear_9_7913" x1="404.193" y1="408.578" x2="422.921" y2="193.851" gradientUnits="userSpaceOnUse">
<stop stop-color="#FF928E"/>
<stop offset="1" stop-color="#FEB3B1"/>
</linearGradient>
<linearGradient id="paint52_linear_9_7913" x1="399.081" y1="355.83" x2="419.368" y2="355.83" gradientUnits="userSpaceOnUse">
<stop stop-color="#4042E2"/>
<stop offset="1" stop-color="#4F52FF"/>
</linearGradient>
<linearGradient id="paint53_linear_9_7913" x1="431.841" y1="408.809" x2="451.022" y2="188.883" gradientUnits="userSpaceOnUse">
<stop stop-color="#FF928E"/>
<stop offset="1" stop-color="#FEB3B1"/>
</linearGradient>
<linearGradient id="paint54_linear_9_7913" x1="453.871" y1="242.248" x2="371.691" y2="333.424" gradientUnits="userSpaceOnUse">
<stop stop-color="#4042E2"/>
<stop offset="1" stop-color="#4F52FF"/>
</linearGradient>
<linearGradient id="paint55_linear_9_7913" x1="445.619" y1="111.807" x2="462.768" y2="154.008" gradientUnits="userSpaceOnUse">
<stop stop-color="#09005D"/>
<stop offset="1" stop-color="#1A0F91"/>
</linearGradient>
<linearGradient id="paint56_linear_9_7913" x1="426.85" y1="354.812" x2="447.626" y2="354.812" gradientUnits="userSpaceOnUse">
<stop stop-color="#4042E2"/>
<stop offset="1" stop-color="#4F52FF"/>
</linearGradient>
<linearGradient id="paint57_linear_9_7913" x1="419.601" y1="155.772" x2="418.507" y2="205.161" gradientUnits="userSpaceOnUse">
<stop stop-color="#FF928E"/>
<stop offset="1" stop-color="#FEB3B1"/>
</linearGradient>
<linearGradient id="paint58_linear_9_7913" x1="688.414" y1="-868.764" x2="679.347" y2="-835.782" gradientUnits="userSpaceOnUse">
<stop stop-color="#FF928E"/>
<stop offset="1" stop-color="#FEB3B1"/>
</linearGradient>
<linearGradient id="paint59_linear_9_7913" x1="413.119" y1="134.101" x2="433.301" y2="165.486" gradientUnits="userSpaceOnUse">
<stop stop-color="#09005D"/>
<stop offset="1" stop-color="#1A0F91"/>
</linearGradient>
<linearGradient id="paint60_linear_9_7913" x1="696.199" y1="-868.818" x2="687.119" y2="-835.787" gradientUnits="userSpaceOnUse">
<stop stop-color="#FF928E"/>
<stop offset="1" stop-color="#FEB3B1"/>
</linearGradient>
<linearGradient id="paint61_linear_9_7913" x1="467.744" y1="155.626" x2="428.781" y2="198.383" gradientUnits="userSpaceOnUse">
<stop stop-color="#FF928E"/>
<stop offset="1" stop-color="#FEB3B1"/>
</linearGradient>
<linearGradient id="paint62_linear_9_7913" x1="571.36" y1="131.256" x2="578.114" y2="85.9836" gradientUnits="userSpaceOnUse">
<stop stop-color="#4042E2"/>
<stop offset="1" stop-color="#4F52FF"/>
</linearGradient>
<linearGradient id="paint63_linear_9_7913" x1="736.366" y1="272.285" x2="729.585" y2="137.147" gradientUnits="userSpaceOnUse">
<stop stop-color="#4042E2"/>
<stop offset="1" stop-color="#4F52FF"/>
</linearGradient>
<linearGradient id="paint64_linear_9_7913" x1="501.583" y1="335.028" x2="585.707" y2="424.792" gradientUnits="userSpaceOnUse">
<stop stop-color="#4042E2"/>
<stop offset="1" stop-color="#4F52FF"/>
</linearGradient>
<linearGradient id="paint65_linear_9_7913" x1="540.881" y1="284.752" x2="641.65" y2="245.515" gradientUnits="userSpaceOnUse">
<stop stop-color="#09005D"/>
<stop offset="1" stop-color="#1A0F91"/>
</linearGradient>
<linearGradient id="paint66_linear_9_7913" x1="595.44" y1="266.484" x2="704.564" y2="223.993" gradientUnits="userSpaceOnUse">
<stop stop-color="#09005D"/>
<stop offset="1" stop-color="#1A0F91"/>
</linearGradient>
<linearGradient id="paint67_linear_9_7913" x1="574.224" y1="149.774" x2="653.604" y2="249.611" gradientUnits="userSpaceOnUse">
<stop stop-color="#4042E2"/>
<stop offset="1" stop-color="#4F52FF"/>
</linearGradient>
<linearGradient id="paint68_linear_9_7913" x1="565.674" y1="115.199" x2="598.907" y2="158.328" gradientUnits="userSpaceOnUse">
<stop stop-color="#09005D"/>
<stop offset="1" stop-color="#1A0F91"/>
</linearGradient>
</defs>
</svg>
