<svg width="486" height="292" viewBox="0 0 486 292" fill="none" xmlns="http://www.w3.org/2000/svg">
<path d="M272.61 216.224H191.829L174.303 181.751H135.788L131.415 185.493L151.929 226.466L151.941 226.453V226.466H151.929L149.046 250.288H153.184L161.021 226.483H175.01L172.127 250.288H176.264L184.101 226.483H236.097L243.938 250.288H248.076L245.193 226.483H247.459L256.725 224.595L263.693 250.288H267.831L265.098 222.887L272.61 221.354V216.224Z" fill="#41B8E1"/>
<path d="M99.3018 17.2341L97.2507 2.94639C97.1138 1.99137 96.3899 1.3533 95.6432 1.52845C94.8964 1.70361 94.3975 2.62943 94.5345 3.58445L96.5855 17.8722C96.7225 18.8272 97.4464 19.4653 98.1931 19.2901C98.9399 19.115 99.442 18.1892 99.3018 17.2341Z" fill="#4A2C76"/>
<path d="M100.93 44.6776C100.93 44.6776 34.4503 48.5414 0.916809 117.161C0.916809 117.161 36.8894 105.939 57.8446 117.327C57.8446 117.327 73.8484 66.2005 100.93 44.6776Z" fill="#FF4081"/>
<path d="M57.6086 117.327C57.6086 117.327 101.617 100.423 110.557 111.242L100.901 44.6776C100.901 44.6776 63.8414 74.3265 57.6086 117.327Z" fill="#EE8914"/>
<path d="M100.93 44.6655C100.93 44.6655 164.173 17.5679 214.314 66.2031C214.314 66.2031 177.595 72.3315 161.11 92.6536C161.11 92.6536 132.154 52.2664 100.93 44.6655Z" fill="#FF4081"/>
<path d="M161.366 92.5524C161.366 92.5524 115.58 96.9732 110.193 111.159L100.93 44.6778C100.93 44.6778 143.723 55.3199 161.366 92.5524Z" fill="#EE8914"/>
<path d="M135.656 267.891L104.319 46.4559C104.092 44.8297 102.877 43.7419 101.62 44.0421L101.227 44.1336C99.97 44.4338 99.1353 46.0098 99.3626 47.6356L130.7 269.071C130.927 270.697 132.142 271.785 133.399 271.485L133.792 271.393C135.049 271.093 135.884 269.517 135.656 267.891Z" fill="#4A2C76"/>
<path d="M91.8378 13.1506C48.9622 30.3823 44.4363 78.8206 44.4363 78.8206C18.6446 84.6227 1.05386 117.077 0.916809 117.327C0.999679 116.69 15.9194 37.5361 91.8378 13.1506Z" fill="#FF7042"/>
<path d="M103.069 10.5609C147.895 6.79181 163.088 50.1594 163.088 50.1594C188.812 43.6451 214.121 65.754 214.314 65.9241C214.065 65.3685 180.765 -1.82053 103.069 10.5609Z" fill="#FF7042"/>
<path d="M96.1181 11.6348C96.1181 11.6348 63.7938 18.1458 50.9775 49.5111C50.9775 49.5111 43.3896 66.8793 44.3164 78.9462C44.3164 78.9462 95.3712 29.945 162.97 50.3528C162.97 50.3528 149.071 -0.654297 96.1181 11.6348Z" fill="#FFC22A"/>
<path d="M61.8873 181.751H100.429L117.966 216.317H198.804L173.633 220.817H81.4092L61.8873 181.751Z" fill="#744DA5"/>
<path d="M101.092 226.3L98.2557 250.288H102.322L110.022 226.317L101.092 226.3Z" fill="#56309E"/>
<path d="M171.307 226.483H173.584V220.712H81.0533L61.4644 181.751L57.0739 185.493L77.6693 226.466L77.6832 226.454V226.466H77.6693L74.7747 250.288H78.9292L86.7974 226.483H162.179L170.051 250.288H174.202L171.307 226.483Z" fill="#6139BC"/>
<path d="M198.804 216.02L173.667 220.534V226.34L182.928 224.441L189.892 250.288H194.024L191.295 222.723L198.804 221.18V216.02Z" fill="#56309E"/>
<path d="M203.782 250.288H69.2062C64.5943 250.288 60.8176 257.568 60.8176 266.469V286.717C60.8176 287.037 60.9544 287.298 61.1207 287.298H211.875C212.041 287.298 212.174 287.037 212.174 286.717V266.469C212.174 257.568 208.401 250.288 203.782 250.288Z" fill="#FF7042"/>
<path d="M461.071 233.154H185.231C175.93 233.154 168.318 252.22 168.318 275.525V287.148C168.318 287.984 168.59 288.669 168.924 288.669H477.376C477.709 288.669 477.985 287.984 477.985 287.148V275.525C477.985 252.22 470.375 233.154 461.071 233.154Z" fill="#FF4081"/>
<path d="M357.113 258.513C356.938 258.29 356.758 258.07 356.578 257.827C356.753 258.05 356.933 258.29 357.113 258.513Z" fill="#FFCE55"/>
<path d="M321.647 220.166C321.647 220.166 324.046 186.652 320.918 168.094C320.918 168.094 319.799 163.359 321.984 154.125C325.619 138.794 324.605 113.688 323.242 110.17C322.726 108.849 321.223 107.289 319.257 105.693C313.367 100.916 303.824 96.0804 303.824 96.0804C303.824 96.0804 297.182 110.124 297.212 118.882C297.247 127.277 308.267 166.46 308.691 172.487C309.111 178.515 309.334 194.575 316.74 220.166C316.74 220.166 316.465 224.371 316.054 225.234C315.639 226.097 313.913 229.019 311.938 229.99C309.963 230.962 304.309 230.457 303.872 233.154H323.793C323.793 233.154 324.064 229.115 323.295 226.452C322.53 223.792 321.647 220.166 321.647 220.166Z" fill="#FFB792"/>
<path d="M367.257 13.836C367.257 13.836 360.53 27.7422 356.662 31.7927C353.807 34.7786 342.391 37.7232 336.583 39.062C336.583 39.062 332.673 39.6153 330.215 38.9708C329.473 38.7793 328.764 38.2096 328.684 37.2283C328.68 37.1784 328.675 37.1286 328.67 37.0787C328.572 35.8682 328.554 34.6333 328.568 33.5602C328.563 33.548 328.563 33.531 328.568 33.5146C328.586 31.7636 328.689 30.4618 328.689 30.4618L328.666 30.4582L320.609 28.774C320.501 32.0505 320.352 34.4917 320.203 36.309C320.082 37.7025 319.214 38.7835 318.141 38.8668C316.461 39 314.478 39.2912 312.51 39.5782C312.328 39.5946 312.136 39.6238 311.945 39.6609C311.941 39.6609 311.941 39.6609 311.936 39.6609C311.278 39.7898 310.588 40.0354 309.934 40.4762C303.692 44.6727 290.849 65.0086 291.343 67.9197C291.838 70.8302 300.282 87.3612 303.347 90.4091H306.407C306.407 90.4091 299.619 70.2191 299.531 68.5848C299.456 67.2083 305.087 62.2136 309.902 57.7387C309.781 58.6166 309.678 59.2611 309.603 59.5687C307.905 66.6052 312.141 69.6865 312.113 81.41C312.113 81.41 311.698 82.7616 307.924 87.7934L319.312 93.9732L336.583 94.7095C336.583 94.7095 335.757 91.7072 334.903 88.638C334.119 85.8223 333.308 82.9489 333.088 82.2916C332.865 81.6222 333.018 77.6672 333.35 72.4438C333.611 68.2644 334.978 69.1338 334.903 60.1135C334.894 59.4022 335.025 57.4438 335.216 54.9899C337.166 50.4238 357.325 43.1502 360.698 39.819C364.229 36.326 369.949 14.8963 369.949 14.8963L367.257 13.836Z" fill="#FFB792"/>
<path d="M328.75 37.1385C325.424 36.5577 320.745 28.9141 320.745 28.9141L328.767 30.2939C328.767 30.2939 328.759 30.3964 328.741 30.582C328.706 31.1008 328.627 32.2664 328.649 33.6092C328.645 33.6251 328.645 33.6416 328.649 33.6542C328.636 34.7167 328.653 35.9399 328.75 37.1385Z" fill="#F2AD8D"/>
<path d="M331.406 30.5677C331.406 30.5677 322.05 34.6538 320.195 26.9892C318.341 19.324 315.882 14.686 321.776 11.7553C327.675 8.81941 329.547 11.2606 330.642 13.6232C331.737 15.9858 333.79 29.3055 331.406 30.5677Z" fill="#FFB792"/>
<path d="M327.698 27.7426C327.698 27.7426 328.078 28.6989 330.033 27.929C330.033 27.929 331.676 27.2844 331.413 26.1898C331.413 26.1898 329.643 25.8959 327.698 27.7426Z" fill="white"/>
<path d="M335.185 88.93L331.21 89.912C331.21 89.912 331.21 87.0801 330.799 85.3353C330.389 83.5911 323.954 73.4806 323.954 73.4806L333.67 72.0924C333.348 77.4095 333.167 81.7878 333.388 82.4692C333.604 83.1382 334.408 86.0639 335.185 88.93Z" fill="#F2AC8C"/>
<path d="M334.975 65.9436C334.737 67.6499 333.938 71.0239 333.573 72.6381C320.702 77.1642 313.809 73.7314 310.642 70.9284C310.409 69.7729 310.123 68.4299 309.785 66.8657C309.275 64.5255 309.552 61.2598 310.04 59.6578C315.07 56.7174 315.676 44.5084 315.861 39.4619C316.792 39.2826 317.495 39.2657 317.495 39.2657C317.495 39.2657 313.84 61.3349 322.323 65.3679C322.323 65.3679 331.469 64.5838 330.028 39.1947C330.028 39.1947 330.555 39.3327 331.333 39.4869C331.438 44.1498 331.702 57.143 334.935 60.492C334.97 61.1055 335.453 62.5108 334.975 65.9436Z" fill="#FF7042"/>
<path d="M329.778 2.27213C326.448 -2.19883 321.203 4.83198 318.072 7.07408C317.436 4.38529 315.659 0.403061 310.789 3.43839C303.806 7.78962 307.243 11.408 306.197 13.166C305.147 14.9194 304.397 19.7956 307.048 22.1034C309.695 24.4117 309.708 25.7063 310.948 25.9377C311.879 26.1115 313.643 25.255 314.724 23.6133C316.162 24.97 317.445 25.7558 317.578 27.1661C317.825 29.7219 320.224 29.6885 320.886 29.548C321.675 29.3828 321.111 25.404 320.568 25.1479C318.654 24.2585 318.42 19.9321 320.436 21.0655C322.447 22.1943 323.934 19.9528 324.101 18.8447C324.273 17.736 322.88 14.452 325.059 13.8275C327.238 13.2035 327.957 13.596 329.448 12.1817C329.448 12.1817 333.704 7.54093 329.778 2.27213Z" fill="#4A2C76"/>
<path d="M318.027 172.494C317.74 168.712 316.088 165.804 314.335 165.997C312.587 166.19 311.405 169.41 311.697 173.189C311.985 176.968 313.637 179.875 315.385 179.687C317.137 179.493 318.315 176.273 318.027 172.494Z" fill="#F2AC8C"/>
<path d="M322.16 154.337C309.785 143.996 300.421 111.522 300.421 111.522L319.449 105.675C321.405 107.279 322.897 108.846 323.409 110.173C324.767 113.708 323.296 138.271 322.16 154.337Z" fill="#F2AC8C"/>
<path d="M353.335 224.766C352.781 223.18 350.547 219.177 350.547 219.177C344.928 174.496 337.661 173.824 337.528 168.629C337.487 166.913 338.133 161.43 338.975 154.569C340.679 140.643 343.17 121.059 342.286 115.876C341.883 113.526 341.237 110.651 340.532 107.788C338.911 101.22 336.979 94.7097 336.979 94.7097L314.862 103.732C314.862 103.732 321.785 154.978 322.715 167.961C323.457 178.343 345.015 219.177 345.015 219.177C344.74 221.523 346.174 225.634 346.064 227.795C345.954 229.961 346.943 233.128 346.943 233.128C346.943 233.128 356.637 233.187 357.076 233.128C357.516 233.074 353.88 226.355 353.335 224.766Z" fill="#FFB792"/>
<path d="M331.986 174.231C331.015 170.523 329.022 168.121 327.544 168.864C326.058 169.612 325.648 173.229 326.619 176.938C327.591 180.646 329.579 183.048 331.061 182.301C332.543 181.557 332.957 177.94 331.986 174.231Z" fill="#F2AC8C"/>
<path d="M338.735 154.337C334.672 143.939 328.767 117.011 328.767 117.011C328.767 117.011 335.498 112.837 340.252 107.731C340.935 110.583 341.564 113.448 341.958 115.789C342.82 120.952 340.392 140.463 338.735 154.337Z" fill="#F2AC8C"/>
<path d="M342.138 116.156C342.138 116.156 335.535 116.443 328.954 118.833C324.575 120.42 320.2 122.941 317.788 126.922C317.788 126.922 311.517 117.937 304.037 115.702C301.997 115.091 299.863 114.982 297.747 115.702C297.747 115.702 297.93 106.523 306.806 90.4578C307.392 89.3928 308.023 88.2989 308.689 87.1705C308.689 87.1705 317.211 93.6775 331.187 89.6411C332.462 89.2707 333.781 88.8162 335.15 88.2567C335.15 88.2567 338.349 98.4961 339.382 102.604C340.102 105.47 342.138 116.156 342.138 116.156Z" fill="#FF7042"/>
<path d="M321.083 84.4301C320.938 84.4031 320.794 84.8444 320.754 85.4089C320.715 85.9772 320.8 86.4571 320.945 86.4841C321.086 86.5074 321.234 86.0703 321.27 85.5015C321.309 84.9332 321.224 84.4533 321.083 84.4301Z" fill="#F2AC8C"/>
<path d="M342.138 116.057C342.138 116.057 335.473 116.34 328.83 118.698C326.681 109.736 331.016 90.1971 331.083 89.9067C332.37 89.5414 333.703 89.093 335.084 88.5413C335.084 88.5413 338.313 98.6399 339.356 102.692C340.083 105.518 342.138 116.057 342.138 116.057Z" fill="#FF4081"/>
<path d="M303.63 90.5972C303.63 90.5972 300.421 95.7366 300.421 96.6728C300.421 97.605 301.075 101.507 301.853 101.562C302.627 101.617 302.891 98.3765 303.495 97.7702C304.104 97.169 306.265 96.029 306.569 94.9782C306.874 93.9234 306.838 90.5972 306.838 90.5972H303.63Z" fill="#FFB792"/>
<path d="M370.203 15.1022C370.203 15.1022 373.158 10.5666 373.158 9.22872C373.158 7.89578 372.266 3.66785 371.279 3.55827C370.293 3.44869 369.49 6.56221 369.58 8.33905C369.665 10.1196 366.804 10.592 367.343 14.0262C367.876 17.461 370.203 15.1022 370.203 15.1022Z" fill="#FFB792"/>
<path d="M372.586 11.1072L370.514 2.30323C370.375 1.70595 369.88 1.36643 369.413 1.54834L367.904 2.12963C367.437 2.30739 367.173 2.94142 367.312 3.53929L369.385 12.3427C369.524 12.9406 370.019 13.2836 370.486 13.1017L371.994 12.5204C372.461 12.3385 372.725 11.7045 372.586 11.1072Z" fill="#4A2C6A"/>
<path d="M372.054 11.7601L369.952 2.27039C369.828 1.69569 369.379 1.37245 368.957 1.54654L367.31 2.21923C366.888 2.39395 366.649 2.99858 366.773 3.57329L368.879 13.063C369.003 13.6377 369.448 13.961 369.87 13.7906L371.521 13.1142C371.943 12.9395 372.182 12.3348 372.054 11.7601Z" fill="#623FA5"/>
<path d="M369.382 2.18468L366.74 3.20801L368.907 12.4652L371.554 11.4419L369.382 2.18468Z" fill="white"/>
<path d="M281.273 146.112H269.732C268.726 146.112 267.738 146.22 266.775 146.433C263.128 147.224 259.805 149.452 257.113 152.701C255.549 154.575 254.199 156.79 253.113 159.268C251.234 163.554 250.147 168.618 250.147 174.032V233.008H254.766V174.032C254.766 173.649 254.774 173.266 254.787 172.887C254.791 172.745 254.8 172.599 254.808 172.458C254.817 172.233 254.834 172.012 254.851 171.787C254.859 171.654 254.868 171.516 254.881 171.383C254.94 170.692 255.025 170.004 255.132 169.334C255.14 169.271 255.153 169.205 255.162 169.142C255.179 169.051 255.192 168.964 255.209 168.876C255.23 168.755 255.251 168.634 255.272 168.514C255.285 168.468 255.294 168.418 255.302 168.372C255.319 168.277 255.336 168.189 255.358 168.097C255.358 168.093 255.358 168.089 255.362 168.081C255.388 167.951 255.413 167.823 255.443 167.697C255.468 167.568 255.494 167.443 255.528 167.314C255.562 167.172 255.592 167.031 255.63 166.886C255.647 166.823 255.66 166.76 255.681 166.694C255.728 166.494 255.784 166.294 255.839 166.094C255.886 165.936 255.933 165.773 255.98 165.615C256.112 165.169 256.257 164.732 256.414 164.303C256.465 164.157 256.521 164.016 256.576 163.87C256.636 163.72 256.691 163.57 256.751 163.42C256.866 163.137 256.985 162.854 257.113 162.579C257.134 162.529 257.156 162.479 257.177 162.429C257.219 162.337 257.262 162.25 257.305 162.162C257.317 162.133 257.33 162.104 257.343 162.079C257.471 161.804 257.607 161.538 257.743 161.276C258.246 160.318 258.804 159.422 259.409 158.598C259.49 158.485 259.575 158.377 259.656 158.273C259.839 158.035 260.027 157.802 260.219 157.577C260.283 157.502 260.346 157.428 260.41 157.356C260.423 157.34 260.432 157.332 260.444 157.319C260.5 157.248 260.564 157.182 260.623 157.115C260.657 157.077 260.692 157.04 260.726 157.007C260.798 156.927 260.87 156.852 260.947 156.774C261.083 156.628 261.224 156.486 261.369 156.349C261.424 156.295 261.48 156.245 261.535 156.194C261.539 156.191 261.539 156.191 261.539 156.191C261.599 156.132 261.663 156.074 261.727 156.016C261.906 155.853 262.089 155.695 262.272 155.545C262.315 155.512 262.353 155.478 262.396 155.445C262.447 155.403 262.498 155.362 262.549 155.324C262.604 155.278 262.664 155.236 262.719 155.195C262.932 155.029 263.154 154.87 263.376 154.725C263.444 154.679 263.508 154.633 263.58 154.587C263.661 154.533 263.746 154.483 263.827 154.433C263.878 154.4 263.929 154.371 263.98 154.341C264.078 154.279 264.176 154.225 264.274 154.166C264.483 154.054 264.688 153.946 264.896 153.845C264.943 153.821 264.994 153.791 265.046 153.771C265.207 153.695 265.369 153.625 265.531 153.554C265.612 153.521 265.689 153.492 265.77 153.458C265.787 153.45 265.808 153.442 265.829 153.437C265.923 153.4 266.017 153.362 266.115 153.329C266.324 153.254 266.537 153.188 266.75 153.125C266.993 153.055 267.235 152.992 267.478 152.942C267.602 152.913 267.725 152.892 267.845 152.867C267.87 152.863 267.896 152.859 267.921 152.854C267.994 152.842 268.07 152.83 268.147 152.817C268.198 152.813 268.245 152.805 268.296 152.8C268.394 152.784 268.492 152.771 268.594 152.758C268.829 152.734 269.072 152.717 269.314 152.709C269.353 152.705 269.387 152.705 269.425 152.705C269.527 152.701 269.63 152.701 269.732 152.701H281.273C288.4 152.701 294.194 160.963 294.194 171.121V272.905H298.715C298.783 272.484 298.817 272.047 298.817 271.598V171.121C298.817 157.332 290.944 146.112 281.273 146.112Z" fill="#FFC22A"/>
<path d="M269.936 152.518C261.597 152.518 254.816 162.127 254.816 173.937V233.154H250.147V173.937C250.147 168.5 251.244 163.416 253.146 159.112C260.945 150.352 269.936 152.518 269.936 152.518Z" fill="#EE8914"/>
<path d="M273.933 152.7C271.487 149.465 268.394 147.224 264.973 146.433C264.071 146.22 263.153 146.112 262.211 146.112H250.8C243.876 146.112 237.791 151.376 234.366 159.268C232.502 163.554 231.428 168.618 231.428 174.032V233.008H236.001V174.032C236.001 162.271 242.638 152.7 250.8 152.7H262.211C262.33 152.7 262.44 152.7 262.555 152.705H262.563C263.379 152.738 264.178 152.879 264.948 153.125C270.684 154.933 274.994 162.316 274.994 171.121V272.905H279.46C279.526 272.484 279.563 272.047 279.563 271.597V171.121C279.563 163.841 277.391 157.273 273.933 152.7Z" fill="#FFDD71"/>
<path d="M250.682 152.518C242.569 152.518 235.972 162.128 235.972 173.937V233.154H231.428V173.937C231.428 168.5 232.496 163.415 234.347 159.112C241.934 150.351 250.682 152.518 250.682 152.518Z" fill="#EE8914"/>
<path d="M446.307 222.222C444.354 231.393 405.529 231.976 404.112 234.86C403.643 235.816 400.717 238.339 396.919 241.352C389.298 247.396 378.174 255.404 376.37 256.684C373.675 258.602 375.654 264.419 373.505 265.292C371.357 266.157 368.956 267.156 367.946 270.03C366.936 272.905 363.566 272.905 363.566 272.905C363.061 267.088 368.203 258.98 368.203 258.98C368.203 258.98 394.739 217.593 397.944 215.826C398.722 215.393 400.505 214.902 402.757 214.411C409.708 212.892 421.106 211.343 421.106 211.343C426.145 210.613 448.265 213.052 446.307 222.222Z" fill="#FFB792"/>
<path d="M446.304 222.19C444.355 231.389 405.605 231.973 404.191 234.866C403.723 235.825 400.802 238.356 397.012 241.378C395.387 229.785 400.334 218.945 402.838 214.356C409.776 212.832 421.876 209.94 421.876 209.94C426.911 209.208 448.258 212.992 446.304 222.19Z" fill="#F2AC8C"/>
<path d="M424.713 161.041C424.227 159.718 423.678 157.369 423.415 153.182C423.456 153.597 424.004 158.876 425.546 161.866C431.88 167.342 443.527 185.824 443.289 189.29C443.289 189.29 448.059 179.544 448.132 179.489C448.132 179.489 456.022 166.275 446.673 158.709C441.923 154.865 441.943 149.929 442.145 145.641C442.342 141.349 440.846 122.893 431.326 127.721C431.326 127.721 429.8 126.829 429.117 126.963C429.117 126.963 429.675 127.105 429.96 127.49C428.858 127.402 427.275 127.511 425.96 128.495C422.473 131.108 419.348 154.538 424.713 161.041Z" fill="#FF4081"/>
<path d="M423.54 209.49C423.54 209.49 425.597 200.457 425.072 198.213C424.548 195.97 417.664 184.644 419.345 179.286C419.504 178.762 419.664 178.159 419.813 177.492C419.864 177.276 419.905 177.052 419.957 176.818C420.018 176.519 420.08 176.207 420.137 175.886C421.211 171.94 405.746 163.066 402.183 157.746C402.183 157.746 402.183 157.741 402.178 157.741C401.874 157.288 401.658 156.86 401.545 156.46C400.789 153.796 410.687 130.349 410.687 130.349L412.975 131.639C412.975 131.639 408.815 153.692 409.386 154.699C410.059 155.89 418.491 157.967 422.26 160.335C422.805 160.505 423.874 161.838 426.029 161.692C426.188 160.809 426.234 159.303 426.234 157.741C426.229 155.011 426.07 152.11 426.07 152.11L433.119 150.287L433.535 150.178C433.52 155.927 434.507 159.989 435.376 161.492C437.258 162.495 441.844 164.227 443.51 165.059C449.386 167.998 440.322 191.882 441.998 198.006C443.679 204.124 447.499 219.447 447.499 219.447L423.54 209.49Z" fill="#FFB792"/>
<path d="M426.106 152.068C426.106 152.068 426.265 155.002 426.27 157.763C430.16 157.616 432.218 152.859 433.059 150.224L426.106 152.068Z" fill="#F2AC8C"/>
<path d="M434.156 148.854C434.156 148.854 436.241 144.68 436.742 141.112C437.1 138.566 436.072 129.123 428.58 130.482C428.58 130.482 426.403 130.755 424.354 132.504C422.729 133.895 420.383 136.898 423.005 145.136L423.69 147.922L434.156 148.854Z" fill="#FF4081"/>
<path d="M425.006 154.336C425.006 154.336 434.549 154.539 434.554 146.947C434.564 139.356 435.8 134.271 429.71 133.822C423.615 133.373 422.426 136.267 421.94 138.798C421.46 141.335 422.524 154.09 425.006 154.336Z" fill="#FFB792"/>
<path d="M425.037 133.947C425.037 133.947 427.633 142.852 431.62 144.169C435.607 145.487 437.338 144.115 437.338 144.115C437.338 144.115 434.278 140.993 433.644 135.547C433.644 135.547 426.994 129.71 425.037 133.947Z" fill="#FF4081"/>
<path d="M426.106 134.518C426.106 134.518 424.162 136.471 423.689 138.372C423.215 140.272 423.001 144.184 422.096 144.053C422.096 144.053 420.136 138.102 422.34 134.734C424.676 131.166 426.106 134.518 426.106 134.518Z" fill="#FF4081"/>
<path d="M427.176 149.73C427.176 149.73 426.989 151.1 425.029 150.887C425.029 150.887 423.385 150.71 423.433 149.204C423.433 149.204 425.029 148.135 427.176 149.73Z" fill="white"/>
<path d="M432.049 212.593C432.049 212.593 406.321 221.47 404.669 225.171C403.012 228.872 403.262 256.209 406.16 273.36L411.412 273.591C411.412 273.591 419.177 243.97 416.58 236.671C414.757 231.557 433.197 234.969 440.485 233.445C447.778 231.921 449.887 219.075 446.375 215.807C442.859 212.54 432.049 212.593 432.049 212.593Z" fill="#FFB792"/>
<path d="M447.971 222.26C447.287 227.354 444.941 232.407 441.936 233.154C441.936 233.154 441.091 221.588 436.413 216.078C434.704 214.065 432.481 212.858 429.601 213.325L424.716 215.153C424.716 215.153 423.384 211.884 421.597 210.345C421.597 210.345 424.602 197.392 423.794 196.56C422.991 195.727 417.914 182.325 419.437 178.731C419.437 178.731 419.52 174.183 424.431 175.293C429.342 176.399 436.527 173.578 438.905 174.347C439.449 174.524 439.952 174.831 440.413 175.221C442.915 177.344 444.231 181.976 444.231 181.976C444.231 181.976 442.972 197.388 443.309 199.077C443.651 200.771 448.65 217.167 447.971 222.26Z" fill="#6A45C0"/>
<path d="M447.97 222.328C447.28 227.39 444.913 232.411 441.881 233.154C441.881 233.154 441.029 221.66 436.309 216.185C436.366 216.164 436.434 216.143 436.497 216.126C446.047 213.486 435.494 204.235 434.725 201.366C434.051 198.847 439.095 180.14 440.344 175.583C442.869 177.693 444.196 182.295 444.196 182.295C444.196 182.295 442.926 197.611 443.266 199.29C443.611 200.973 448.655 217.266 447.97 222.328Z" fill="#4A2C76"/>
<path d="M410.974 129.774C410.974 129.774 409.891 125.512 411.391 124.122C412.887 122.729 417.378 120.161 417.544 122.192C417.711 124.228 413.24 131.034 413.24 131.034L410.974 129.774Z" fill="#F2AC8C"/>
<path d="M426.106 114.244C426.106 116.291 425.765 118.234 425.147 119.989C423.435 124.885 419.599 128.292 415.14 128.292C409.084 128.292 404.178 122.003 404.178 114.244C404.178 107.622 407.748 102.074 412.559 100.59C413.387 100.327 414.251 100.192 415.14 100.192C421.195 100.192 426.106 106.482 426.106 114.244Z" fill="#FF9F23"/>
<path d="M426.106 114.514C426.106 116.6 425.763 118.581 425.141 120.369C423.661 121.485 421.943 122.124 420.11 122.124C414.558 122.124 410.061 116.282 410.061 109.078C410.061 105.839 410.971 102.876 412.476 100.598C413.31 100.33 414.179 100.193 415.073 100.193C421.165 100.193 426.106 106.603 426.106 114.514Z" fill="#FFC22A"/>
<path d="M404.178 114.585C407.594 108.276 411.724 106.621 414.645 106.392C417.808 106.147 420.199 107.413 420.223 107.426L420.16 107.629C420.141 107.616 417.774 106.367 414.65 106.612C411.768 106.836 407.555 108.351 404.178 114.585Z" fill="#CAD2D0"/>
<path d="M416.479 128.292C420.975 125.352 422.053 120.186 422.167 116.302C422.292 112.084 421.333 108.519 421.322 108.483L421.501 108.417C421.506 108.454 422.476 112.055 422.351 116.31C422.232 120.248 421.051 125.303 416.479 128.292Z" fill="#CAD2D0"/>
<path d="M421.279 106.361L421.14 106.336C421.144 106.304 421.409 102.947 420.223 101.563C421.47 103.02 421.287 106.224 421.279 106.361Z" fill="#CAD2D0"/>
<path d="M426.106 113.214C425.378 109.701 421.329 107.268 421.293 107.243L421.365 107.046C421.375 107.05 422.398 107.666 423.498 108.713C424.521 109.684 425.714 111.321 426.106 113.214Z" fill="#CAD2D0"/>
<path d="M421.816 107.387C421.835 107.537 421.83 107.68 421.801 107.806C421.718 108.164 421.473 108.417 421.149 108.417C420.713 108.417 420.301 107.957 420.233 107.387C420.174 106.902 420.385 106.495 420.718 106.389C420.777 106.369 420.836 106.361 420.899 106.361C421.336 106.361 421.747 106.821 421.816 107.387Z" fill="#74DAEE"/>
<path d="M420.522 175.392C421.591 171.558 406.134 162.933 402.574 157.764C403.066 158.33 422.471 171.149 422.362 172.986C422.277 174.361 420.93 175.461 420.194 176.954C420.244 176.743 420.289 176.525 420.333 176.299C420.398 176.007 420.458 175.704 420.522 175.392Z" fill="#FFBD9C"/>
<path d="M426.771 200.934C426.681 200.894 426.629 200.776 426.643 200.655C426.856 198.849 428.495 186.144 428.793 183.841L428.802 183.796C428.812 183.768 429.015 183.108 429.52 182.829C429.969 182.577 432.349 181.784 432.449 181.752L432.524 182.164C432.501 182.173 430.068 182.982 429.638 183.221C429.298 183.412 429.133 183.849 429.1 183.942C428.745 186.667 427.102 199.202 426.908 200.821C426.898 200.91 426.832 200.963 426.771 200.934Z" fill="white"/>
<path d="M430.92 189.976L430.303 201.836C430.287 202.103 430.103 202.312 429.882 202.312H426.599C426.351 202.312 426.151 202.082 426.14 201.788L425.571 189.976H430.92Z" fill="#FF7042"/>
<path d="M428.246 189.976L427.559 202.312H426.669C426.41 202.312 426.196 202.083 426.179 201.788L425.571 189.976H428.246Z" fill="#FF4081"/>
<path d="M430.92 189.976H425.571C425.571 189.722 425.592 189.477 425.635 189.241C425.882 187.8 426.825 186.695 427.985 186.549C428.053 186.704 428.174 186.811 428.322 186.811C428.459 186.811 428.575 186.717 428.643 186.575C428.859 186.617 429.07 186.691 429.265 186.803C430.24 187.314 430.92 188.544 430.92 189.976Z" fill="#FF7042"/>
<path d="M429.315 186.976C429.315 188.253 427.806 189.29 425.939 189.29C425.815 189.29 425.69 189.286 425.571 189.277C425.82 187.817 426.794 186.697 427.984 186.549C428.055 186.706 428.184 186.815 428.331 186.815C428.471 186.815 428.59 186.719 428.661 186.575C428.888 186.619 429.104 186.692 429.304 186.806C429.31 186.859 429.315 186.919 429.315 186.976Z" fill="#FF4081"/>
<path d="M430.829 189.976H425.662C425.612 189.976 425.571 189.823 425.571 189.634C425.571 189.443 425.612 189.29 425.662 189.29H430.829C430.88 189.29 430.92 189.443 430.92 189.634C430.92 189.823 430.88 189.976 430.829 189.976Z" fill="#CAD2D0"/>
<path d="M442.952 162.696C441.51 161.661 435.687 161.19 435.687 161.19C435.687 161.19 442.277 175.94 442.936 177.637C443.529 179.147 445.048 187.545 447.41 193.263C447.716 194.014 437.977 196.074 433.453 197.729C432.205 197.099 429.808 195.915 429.47 195.994C429.015 196.103 425.375 199.843 425.58 200.94C425.789 202.041 427.993 202.558 430.191 202.2C431.045 202.062 431.715 201.766 432.246 201.395C433.08 201.453 449.567 202.554 453.979 199.08C456.04 197.458 451.188 168.601 442.952 162.696Z" fill="#FFB792"/>
<path d="M215.898 141.615C215.142 140.358 213.137 143.143 212.77 142.796C212.236 142.287 214.456 138.261 213.548 135.769C212.637 133.271 211.365 131.322 210.594 131.789C209.827 132.257 206.195 139.301 206.284 141.66C206.35 143.331 205.946 145.77 205.709 147.043C203.993 152.639 193.863 176.156 188.685 179.781C176.124 188.57 170.338 188.312 165.494 191.205C159.526 194.772 156.621 196.968 156.621 196.968C155.468 202.154 169.282 242.145 170.264 228.14C171.261 213.926 196.814 196.15 199.286 191.773C201.599 187.677 209.108 154.146 210.068 149.177C210.342 148.655 211.117 147.34 212.199 146.859C213.563 146.25 216.173 142.07 215.898 141.615Z" fill="#F2AC8C"/>
<path d="M226.378 131.493C225.946 130.534 224.051 131.172 222.208 132.535C220.369 133.898 220.441 138.859 219.771 138.872C219.321 138.884 218.886 135.099 217.713 135.558C217.293 135.724 217.611 141.106 218.47 142.628C219.329 144.149 219.208 146.392 219.208 146.392C218.095 150.736 207.35 175.873 201.958 179.629C189.347 188.404 183.539 188.146 178.681 191.035C173.633 194.032 170.773 196.058 169.99 196.625C169.914 196.616 169.838 196.6 169.759 196.592C169.634 196.579 169.509 196.566 169.38 196.558C168.885 196.525 168.393 196.517 167.901 196.529C168.336 191.843 168.007 188.625 168.007 188.625L167.727 187.037L161.949 183.401L161.476 182.993L159.138 180.98C159.138 181.009 159.123 181.58 159.104 182.293C159.074 183.397 159.028 184.852 159.017 185.169C158.733 194.186 151.559 206.521 151.109 207.284C151.101 207.297 151.098 207.309 151.09 207.322C148.313 211.87 146.569 217.564 146.353 223.821C145.127 259.751 138.903 287.298 138.903 287.298H169.77C169.77 287.298 173.732 274.371 174.352 269.206C174.59 267.217 175.29 265.033 176.18 262.494C177.595 258.43 179.479 253.453 180.667 246.928C181.814 240.671 183.278 233.051 183.872 225.439C187.33 211.728 210.255 195.72 212.598 191.602C215.076 187.229 223.532 149.235 223.521 148.476C223.521 148.451 223.517 148.426 223.517 148.405C223.657 147.884 224.596 144.525 225.61 142.807C226.714 140.948 226.805 132.456 226.378 131.493Z" fill="#FFB792"/>
<path d="M183.828 224.244C183.278 232.244 181.723 240.315 180.523 246.895C179.323 253.488 177.427 258.517 175.996 262.625C174.881 259.031 173.965 254.638 174.256 250.447C174.877 241.604 182.792 226.224 183.828 224.244Z" fill="#F2AC8C"/>
<path d="M162.434 197.43C159.226 201.937 155.041 206.596 151.204 207.11C151.211 207.098 151.217 207.085 151.224 207.073C151.663 206.321 158.711 194.164 158.989 185.276C158.999 184.964 159.042 183.53 159.076 182.441C159.226 182.429 159.37 182.441 159.511 182.474C160.174 182.635 160.803 182.861 161.406 183.132C165.25 184.882 165.601 192.98 162.434 197.43Z" fill="#F2AC8C"/>
<path d="M172.262 187.594C172.262 187.594 160.135 196.532 155.883 186.819C151.635 177.106 147.203 171.717 154.771 165.603C162.335 159.486 165.474 162.111 167.512 164.916C169.546 167.716 175.306 185.022 172.262 187.594Z" fill="#FFB792"/>
<path d="M167.249 162.866C167.249 162.866 166.638 177.317 164.609 177.358C162.581 177.396 160.759 177.52 161.675 181.077C162.595 184.634 166.017 188.058 160.162 190.438C154.307 192.818 142.253 175.462 143.238 171.228C146.073 159.007 167.28 146.461 167.249 162.866Z" fill="#4A2C6A"/>
<path d="M484.937 291.41H107.348C113.15 261.465 144.523 299.292 169.781 268.946C172.714 265.425 175.961 262.646 179.433 260.501C198.596 248.668 224.573 256.204 241.979 264.933C241.988 264.937 241.997 264.941 242.006 264.945C242.45 265.166 242.885 265.387 243.315 265.612C243.338 265.625 243.356 265.633 243.373 265.641C243.517 265.717 243.66 265.792 243.808 265.867C243.817 265.875 243.826 265.879 243.835 265.883C249.584 268.896 254.26 271.971 257.242 274.378C270.815 285.323 288.997 273.327 300.771 260C302.22 258.357 303.933 257.551 305.847 257.376C317.026 256.367 335.033 277.078 347.202 280.216C349.861 280.904 352.237 280.754 354.21 279.352C366.734 270.444 374.105 248.718 387.086 267.289C400.067 285.861 422.737 281.822 446.865 269.868C470.993 257.915 484.937 291.41 484.937 291.41Z" fill="#4A2C6A"/>
<path d="M301.907 256.457C301.907 256.457 297.214 242.614 300.547 240.92C303.88 239.225 302.104 247.512 301.956 249.868C301.803 252.23 301.907 256.457 301.907 256.457Z" fill="#7C409C"/>
<path d="M300.956 257.142C300.956 257.142 295.517 244.508 292.619 248.234C289.717 251.956 295.759 251.358 300.956 257.142Z" fill="#7C409C"/>
<path d="M297.212 259.382C263.737 248.271 208.091 275.251 204.963 267.304C201.776 259.207 209.007 254.979 209.007 254.979C236.032 243.222 272.665 250.709 297.212 259.382Z" fill="#7C409C"/>
<path d="M445.36 274.925C435.525 275.807 379.241 260.479 387.319 251.699C387.319 251.699 387.324 251.699 387.324 251.695C403.011 250.668 428.284 271.733 445.36 274.925Z" fill="#7C409C"/>
<path d="M444.29 270.849C444.29 270.849 429.657 266.801 434.622 258.703C439.586 250.602 438.335 266.7 444.29 270.849Z" fill="#7C409C"/>
<path d="M476.915 265.366C476.915 265.366 484.885 261.961 485.421 256.853C485.962 251.741 482.084 248.504 480.686 253.378C479.283 258.252 478.961 264.408 476.915 265.366Z" fill="#7C409C"/>
</svg>
