<svg width="485" height="337" viewBox="0 0 485 337" fill="none" xmlns="http://www.w3.org/2000/svg">
<path d="M484.861 320.556C484.861 329.148 376.39 336.113 242.584 336.113C108.777 336.113 0.305664 329.148 0.305664 320.556C0.305664 311.965 108.777 305 242.584 305C376.39 305 484.861 311.965 484.861 320.556Z" fill="#421842" fill-opacity="0.2"/>
<path d="M117.844 117.348C117.844 117.348 129.892 113.44 125.035 151.57C120.108 190.243 105.619 252.512 107.939 284.884C110.097 315.013 118.658 318.931 118.658 318.931" stroke="#421842" stroke-width="0.991836" stroke-miterlimit="10"/>
<path d="M423.078 133.623C423.078 133.623 424.754 137.4 424.782 140.673L429.851 139.804C429.851 139.804 428.863 135.403 425.615 132.772C422.368 130.139 423.078 133.623 423.078 133.623Z" fill="#FFA13D"/>
<path d="M412.499 87.1043C412.499 87.1043 406.021 87.1043 408.72 92.3389L410.88 91.1493C410.88 91.1493 409.26 87.8595 412.499 88.3147V87.1043Z" fill="white"/>
<path d="M163.402 16.1089C163.402 16.1089 162.141 20.0093 159.914 22.6285L164.545 24.6433C164.545 24.6433 166.782 20.6137 166.007 16.7856C165.23 12.9575 163.402 16.1089 163.402 16.1089Z" fill="#FFA13D"/>
<path d="M37.2828 120.068C37.2828 120.068 36.0224 123.969 33.7953 126.588L38.4256 128.603C38.4256 128.603 40.663 124.573 39.8867 120.745C39.1112 116.917 37.2828 120.068 37.2828 120.068Z" fill="white"/>
<path d="M322.067 14.2931C322.067 14.2931 323.743 18.0697 323.771 21.3425L328.84 20.4736C328.84 20.4736 327.851 16.0726 324.604 13.441C321.357 10.8095 322.067 14.2931 322.067 14.2931Z" fill="white"/>
<path d="M213.323 74.8119C213.323 74.8119 206.845 74.8119 209.544 80.0465L211.704 78.8568C211.704 78.8568 210.084 75.567 213.323 76.0223V74.8119Z" fill="#FFA13D"/>
<path d="M370.298 42.8644C370.298 42.8644 369.814 48.5589 375.937 46.5779L374.752 44.5908C374.752 44.5908 370.91 45.7682 371.668 42.9551L370.298 42.8644Z" fill="#FFA13D"/>
<path d="M88.1845 42.474C88.1845 42.474 87.7004 48.1685 93.8231 46.1867L92.6385 44.2004C92.6385 44.2004 88.7969 45.3778 89.554 42.5647L88.1845 42.474Z" fill="white"/>
<path d="M90.143 157.653C90.143 157.653 89.8578 166.176 87.5758 167.435L94.4226 168.593C94.4226 168.593 93.8512 161.2 92.7102 157.653H90.143Z" fill="#FFA13D"/>
<path d="M375.68 150.992C375.68 150.992 375.395 159.517 373.113 160.774L379.959 161.933C379.959 161.933 379.389 154.541 378.247 150.992H375.68Z" fill="#FFA13D"/>
<path d="M38.1929 67.446C38.1929 67.446 30.7757 68.1688 32.4872 73.9425H36.7667C36.7667 73.9425 38.1929 69.6668 41.6159 69.0324L38.1929 67.446Z" fill="#FFA13D"/>
<path d="M246.206 119.985C246.185 120.025 252.885 125.873 249.654 140.754C246.425 155.633 230.031 172.565 248.371 205.8C248.371 205.8 275.781 259.686 250.535 313.794" stroke="#421842" stroke-width="0.991836" stroke-miterlimit="10"/>
<path d="M296.248 67.6003C283.049 99.651 256.64 128.82 242.809 118.292C228.324 107.265 191.474 44.9255 208.807 16.4655C213.584 8.60803 220.2 5.38301 226.883 5.28327C226.916 5.27219 226.938 5.27219 226.938 5.27219C237.323 5.12811 247.895 12.5202 252.062 21.8517C254.224 26.6836 254.401 24.0349 255.808 18.948C261.339 -1.0781 285.986 -5.91009 298.565 12.1323C307.752 25.3316 304.727 47.0533 296.248 67.6003Z" fill="#FF65A0"/>
<path d="M247.828 117.161C247.828 117.161 242.984 124.908 244.368 126.225C245.751 127.541 245.405 122.753 247.828 124.281C250.25 125.811 251.955 130.87 252.486 128.168C253.018 125.465 247.828 117.161 247.828 117.161Z" fill="#FF65A0"/>
<path d="M296.248 67.6001C288.204 84.0266 278.365 92.9547 268.514 95.6721C243.126 102.675 223.968 62.8235 219.291 34.7736C214.803 7.83202 225.996 5.42711 226.883 5.28304C226.916 5.27195 226.938 5.27195 226.938 5.27195C237.322 5.12788 247.895 12.5199 252.062 21.8514C254.223 26.6834 254.4 24.0347 255.808 18.9478C261.338 -1.07835 285.986 -5.91032 298.564 12.132C307.752 25.3313 304.726 47.0531 296.248 67.6001Z" fill="#FF78AC"/>
<path d="M232.798 13.2443C232.798 13.2443 225.803 11.9975 230.188 18.2081C234.572 24.4199 243.95 26.5433 243.72 23.0135C243.48 19.3153 239.237 13.8051 232.798 13.2443Z" fill="#FF96BF"/>
<path d="M286.739 10.3928C286.739 10.3928 280.467 7.05586 282.73 14.3149C284.993 21.5729 293.265 26.4758 294.13 23.0457C295.039 19.4528 292.694 12.9052 286.739 10.3928Z" fill="#FF96BF"/>
<path d="M57.6868 172.839C57.6868 172.839 69.7346 169.975 64.8771 197.917C59.9509 226.256 45.4616 271.886 47.7812 295.607C49.9401 317.685 58.5002 320.556 58.5002 320.556" stroke="#421842" stroke-width="0.991836" stroke-miterlimit="10"/>
<path d="M59.356 183.698C32.8577 172.859 13.1087 108.48 43.0093 82.4143C43.4969 81.9821 43.9956 81.5609 44.5054 81.162C50.7449 76.2524 75.6362 63.175 94.5541 94.4388C98.976 101.742 101.137 110.442 101.547 119.53C103.088 153.309 80.3352 192.263 59.356 183.698Z" fill="#FF65A0"/>
<path d="M63.3567 180.625C63.3567 180.625 61.1081 191.359 61.9515 191.359C62.7948 191.359 64.8351 186.974 65.7827 187.76C66.7291 188.548 68.9789 193.046 69.5408 191.359C70.1027 189.673 67.3553 177.556 63.3567 180.625Z" fill="#FF65A0"/>
<path d="M101.547 119.53C93.3348 158.695 53.6372 168.88 42.6877 135.987C34.0101 109.932 38.6648 91.9009 43.0091 82.4142C43.4967 81.982 43.9954 81.5609 44.5052 81.1619C50.7447 76.2524 75.636 63.175 94.5539 94.4388C98.9758 101.742 101.137 110.442 101.547 119.53Z" fill="#FF78AC"/>
<path d="M73.1001 85.6998C73.1001 85.6998 66.8274 82.3629 69.0905 89.622C71.3535 96.8799 79.6244 101.783 80.4911 98.3528C81.3998 94.7598 79.0548 88.2123 73.1001 85.6998Z" fill="#FF96BF"/>
<path d="M125.09 82.0846C122.818 105.668 102.77 130.227 87.11 123.035C66.5852 113.603 59.9246 63.6765 82.3224 48.7594C82.943 48.3494 83.8961 47.8396 85.1373 47.3298C92.6513 44.2156 110.284 41.1346 121.41 61.3603C124.802 67.5221 125.81 74.759 125.09 82.0846Z" fill="#D44CB9"/>
<path d="M125.09 82.0847C112.545 99.1075 89.3047 80.4445 85.0157 64.7627C82.9544 57.2266 83.6747 51.4526 85.1376 47.3299C92.6516 44.2157 110.284 41.1348 121.411 61.3604C124.802 67.5223 125.81 74.7592 125.09 82.0847Z" fill="#ED55CF"/>
<path d="M107.708 54.4897C107.708 54.4897 103.548 52.2765 105.049 57.0908C106.55 61.905 112.035 65.1566 112.61 62.8814C113.212 60.4986 111.657 56.1554 107.708 54.4897Z" fill="#FF5BDF"/>
<path d="M358.947 126.227C358.947 126.227 353.894 133.062 357.477 148.354C361.06 163.646 377.66 193.889 373.475 220.312C373.475 220.312 368.558 241.172 361.428 258.093C354.298 275.011 361.28 307.455 369.875 313.794" stroke="#421842" stroke-width="0.991836" stroke-miterlimit="10"/>
<path d="M389.785 85.4537C386.848 108.583 367.299 132 351.96 124.952C333.197 116.33 322.104 74.2603 338.905 55.1318C340.479 53.3254 342.308 51.7406 344.391 50.3885C351.041 46.0996 373.305 39.7382 386.26 63.2775C389.874 69.8384 390.781 77.6294 389.785 85.4537Z" fill="#D44CB9"/>
<path d="M389.785 85.4535C381.329 106.854 361.348 119.743 346.596 99.4286C334.65 82.9821 336.289 65.3942 338.906 55.1317C340.479 53.3253 342.308 51.7405 344.391 50.3884C351.041 46.0995 373.306 39.7381 386.26 63.2774C389.874 69.8383 390.782 77.6293 389.785 85.4535Z" fill="#ED55CF"/>
<path d="M354.622 131.785C355.977 132.917 356.632 128.408 357.547 128.948C358.46 129.489 360.156 133.9 360.405 131.785C360.653 129.671 357.487 122.726 357.487 122.726C357.487 122.726 353.948 131.222 354.622 131.785Z" fill="#D44CB9"/>
<path d="M373.127 57.9889C373.127 57.9889 368.966 55.7757 370.468 60.5899C371.968 65.4042 377.453 68.6558 378.028 66.3806C378.631 63.9978 377.075 59.6546 373.127 57.9889Z" fill="#FF5BDF"/>
<path d="M259.188 173.843L263.111 179.241L257.36 186.079C249.736 183.518 249.535 176.703 249.535 176.703C247.608 177.002 241.014 175.262 241.014 175.262L246.21 164.778C246.21 164.778 263.267 170.84 263.91 172.835C264.553 174.841 259.188 173.843 259.188 173.843Z" fill="#FAB9AB"/>
<path d="M257.36 186.079C249.735 183.519 249.534 176.703 249.534 176.703C249.534 176.703 256.839 174.01 254.223 175.429C251.597 176.847 257.36 186.079 257.36 186.079Z" fill="#D0898D" fill-opacity="0.6"/>
<path d="M193.624 317.785C193.624 317.785 188.201 326.244 190.369 327.09C192.538 327.935 217.912 327.09 217.912 327.09C217.912 327.09 217.373 324.271 214.541 323.988C211.71 323.707 203.552 323.414 203.12 320.177C202.688 316.94 193.624 317.785 193.624 317.785Z" fill="#5F30AB"/>
<path d="M205.084 318.836C204.641 319.878 203.599 320.532 202.468 320.51L195.086 320.299L190.677 320.177C189.313 320.177 188.316 318.892 188.66 317.573C190.045 312.198 192.937 297.957 193.835 270.173C194.733 241.946 177.511 216.334 169.275 205.761C166.705 202.459 165.01 200.619 165.01 200.619C165.01 200.619 166.195 195.654 168.998 190.301C169.021 190.268 169.042 190.223 169.066 190.179C174.861 179.174 180.986 159.052 200.345 187.626C237.119 241.909 210.459 306.224 205.084 318.836Z" fill="#793DD9"/>
<mask id="mask0_9_8136" style="mask-type:luminance" maskUnits="userSpaceOnUse" x="168" y="190" width="37" height="131">
<path d="M168.999 190.124H204.198V320.299H168.999V190.124Z" fill="white"/>
</mask>
<g mask="url(#mask0_9_8136)">
<g opacity="0.309998">
<path d="M195.087 320.299L190.677 320.178C189.313 320.178 188.316 318.891 188.659 317.573C190.045 312.197 192.937 297.957 193.835 270.173C194.733 241.946 177.51 216.333 169.276 205.76L168.999 190.3V190.124C168.999 190.124 169.021 190.135 169.067 190.18C170.672 191.299 201.604 213.309 203.887 235.385C205.959 255.522 197.093 308.674 195.087 320.299Z" fill="#421842"/>
</g>
</g>
<path d="M71.5428 280.458C71.5428 280.458 61.6063 278.966 61.7215 281.291C61.8368 283.617 72.9814 306.427 72.9814 306.427C72.9814 306.427 75.3342 304.781 74.4343 302.083C73.5333 299.383 70.4645 291.818 73.2429 290.1C76.0202 288.383 71.5428 280.458 71.5428 280.458Z" fill="#5F30AB"/>
<path d="M197.038 179.596C166.561 198.878 122.308 190.112 122.308 190.112C122.308 190.112 122.319 190.101 122.33 190.08C128.647 183.719 132.737 163.271 127.495 142.514C126.409 138.18 124.901 133.835 122.918 129.603C122.729 129.17 122.519 128.737 122.308 128.306C118.23 119.994 127.196 91.6006 127.196 91.6006L151.034 89.8717C151.034 89.8717 177.665 122.864 179.826 136.507C181.976 150.15 197.038 179.596 197.038 179.596Z" fill="#793DD9"/>
<path d="M162.617 59.5628C163.981 60.9448 164.771 62.7823 164.871 64.7218C164.958 66.454 161.032 69.3565 162.34 71.7503C164.771 76.1966 159.101 83.0811 156.7 84.2813C150.928 87.1672 138.935 74.5852 145.453 61.3904C150.406 51.3651 158.656 55.5532 162.617 59.5628Z" fill="#FAB9AB"/>
<path d="M169.275 205.761C168.642 208.924 167.876 211.976 166.99 214.924C147.813 278.717 72.4138 293.224 72.4138 293.224C72.4138 293.224 69.1334 287.705 67.87 282.941C67.2383 280.546 67.1164 278.329 68.1803 277.122C79.7948 263.912 103.744 255.355 121.155 229.633C130.121 216.389 131.473 201.461 130.719 190.269C130.686 189.615 130.63 188.982 130.575 188.35C128.669 167.105 158.458 160.179 165.862 180.195C166.912 183.034 168.156 186.347 168.999 190.122C170.014 194.67 170.452 199.887 169.275 205.761Z" fill="#793DD9"/>
<path d="M246.21 164.778C246.21 164.778 244.869 168.624 243.051 172.048C241.656 174.64 239.982 177.001 238.42 177.268C229.287 178.786 209.726 172.79 189.612 163.038V163.027C153.229 145.384 115.038 115.416 133.491 95.3681C133.491 95.3681 153.028 84.6623 160.665 93.1405C172.134 105.885 194.555 143.455 246.21 164.778Z" fill="#793DD9"/>
<path d="M131.506 139.155C130.22 140.263 128.868 141.383 127.494 142.513C118.384 150.005 107.933 158.217 103.013 170.119C103.002 170.142 103.002 170.163 102.991 170.175C102.658 170.962 102.359 171.76 102.093 172.58C102.038 172.746 102.004 172.835 102.004 172.835C97.5048 186.655 102.115 207.878 102.115 207.878L94.5347 210.915L88.7828 213.22C88.7828 213.22 73.4779 182.178 77.5673 164.778C79.5733 156.256 82.6431 147.833 86.0787 140.064C86.0898 140.031 86.0898 140.02 86.0898 140.02C95.1775 119.439 106.781 103.392 107.9 102.007C110.926 98.2385 115.481 92.0877 127.195 91.6001C134.631 91.2898 134.277 96.421 141.835 111.837C147.443 123.285 140.926 131.054 131.506 139.155Z" fill="#793DD9"/>
<path d="M127.192 91.5961C127.192 91.5961 155.437 136.506 149.851 172.839L182.693 171.207C182.693 171.207 162.809 130.212 151.036 89.8727C151.036 89.8727 144.969 90.141 127.192 91.5961Z" fill="white"/>
<path d="M149.967 56.1416C149.967 56.1416 162.749 67.9434 170.324 64.7538C177.898 61.5654 170.324 56.1416 170.324 56.1416C170.324 56.1416 169.862 60.1701 165.009 57.7774C160.156 55.3858 154.481 50.8929 149.967 56.1416Z" fill="#421842"/>
<path d="M153.318 55.4614C153.318 55.4614 151.098 51.4196 146.265 53.7015C141.433 55.9845 141.127 66.0408 143.565 71.0035C143.565 71.0035 145.612 57.0285 153.318 55.4614Z" fill="#421842"/>
<path d="M155.11 58.649C155.11 58.649 151.97 62.5711 148.531 63.8068C148.531 63.8068 147.693 69.9377 144.394 69.4844C144.394 69.4844 145.554 68.4759 144.847 65.7662C144.697 65.191 144.596 64.5837 144.569 63.9564C144.42 60.3679 148.382 54.3224 151.746 55.1769C155.11 56.0324 155.11 58.649 155.11 58.649Z" fill="#421842"/>
<path d="M144.176 71.2745C144.176 71.2745 141.725 71.2024 141.025 69.0846C139.774 65.3021 143.909 63.7162 144.848 65.7665L144.176 71.2745Z" fill="#FAB9AB"/>
<path d="M144.395 69.4842L133.146 91.1229L146.377 90.172L152.437 80.303L144.395 69.4842Z" fill="#FAB9AB"/>
<path d="M90.2348 212.639C90.2348 212.639 91.7276 219.747 96.3634 221.205C101 222.662 104.975 219.218 104.843 218.157C104.71 217.097 103.782 215.397 103.782 215.397C103.782 215.397 104.716 215.508 104.846 213.918C104.975 212.329 101.013 208.32 101.013 208.32L90.2348 212.639Z" fill="#FAB9AB"/>
<mask id="mask1_9_8136" style="mask-type:luminance" maskUnits="userSpaceOnUse" x="181" y="171" width="18" height="14">
<path d="M181.184 171.208H198.041V184.421H181.184V171.208Z" fill="white"/>
</mask>
<g mask="url(#mask1_9_8136)">
<g opacity="0.309998">
<path d="M182.693 171.208C182.693 171.208 188.519 180.743 190.163 181.55L197.032 179.599L198.041 181.305C198.041 181.305 192.846 184.575 190.366 184.414C187.887 184.254 181.184 171.208 181.184 171.208H182.693Z" fill="#421842"/>
</g>
</g>
<mask id="mask2_9_8136" style="mask-type:luminance" maskUnits="userSpaceOnUse" x="67" y="172" width="87" height="111">
<path d="M67.3873 172.569H153.538V282.94H67.3873V172.569Z" fill="white"/>
</mask>
<g mask="url(#mask2_9_8136)">
<g opacity="0.309998">
<path d="M149.848 172.835L144.961 190.523L144.529 192.096C141.47 192.274 135.785 191.753 130.931 191.21C130.875 191.199 130.831 191.199 130.775 191.189C126.143 190.667 122.308 190.113 122.308 190.113L121.244 192.096L130.676 193.592L130.886 196.176C130.809 206.415 128.625 218.606 121.156 229.633C103.745 255.355 79.7958 263.912 68.1813 277.123C67.1174 278.33 67.2393 280.546 67.871 282.941C73.7226 278.895 93.0616 265.828 119.626 250.723C135.275 241.824 147.443 200.386 149.749 192.074C150.015 191.144 150.148 190.622 150.148 190.622C152.009 183.552 153.539 172.569 153.539 172.569L149.848 172.835Z" fill="#421842"/>
</g>
</g>
<mask id="mask3_9_8136" style="mask-type:luminance" maskUnits="userSpaceOnUse" x="76" y="140" width="19" height="74">
<path d="M76.8728 140.064H94.535V213.22H76.8728V140.064Z" fill="white"/>
</mask>
<g mask="url(#mask3_9_8136)">
<g opacity="0.309998">
<path d="M94.5356 210.915L88.7838 213.22C88.7838 213.22 73.4788 182.178 77.5672 164.778C79.5742 156.256 82.6441 147.833 86.0797 140.064C85.7804 141.294 79.1642 168.923 90.2356 196.419C92.6959 202.525 94.048 207.269 94.5356 210.915Z" fill="#421842"/>
</g>
</g>
<mask id="mask4_9_8136" style="mask-type:luminance" maskUnits="userSpaceOnUse" x="103" y="132" width="35" height="60">
<path d="M103.013 132.051H137.843V191.188H103.013V132.051Z" fill="white"/>
</mask>
<g mask="url(#mask4_9_8136)">
<g opacity="0.309998">
<path d="M131.894 189.393C131.54 189.991 131.163 190.59 130.775 191.188L122.308 190.112C122.308 190.112 122.319 190.102 122.33 190.08C128.647 183.719 132.737 163.271 127.495 142.514C118.385 150.005 107.934 158.218 103.013 170.119C106.094 161.941 127.639 132.495 128.403 132.052L131.506 139.156C136.904 151.479 142.367 171.572 131.894 189.393Z" fill="#421842"/>
</g>
</g>
<mask id="mask5_9_8136" style="mask-type:luminance" maskUnits="userSpaceOnUse" x="171" y="121" width="73" height="57">
<path d="M171.724 121.002H243.051V177.502H171.724V121.002Z" fill="white"/>
</mask>
<g mask="url(#mask5_9_8136)">
<g opacity="0.309998">
<path d="M243.051 172.048C241.655 174.641 239.98 177.002 238.419 177.268C229.287 178.786 209.726 172.791 189.612 163.038V163.027C189.257 162.351 175.138 135.265 171.724 121.002C171.724 121.002 199.963 169.578 243.018 171.206C243.018 171.206 243.051 171.527 243.051 172.048Z" fill="#421842"/>
</g>
</g>
<mask id="mask6_9_8136" style="mask-type:luminance" maskUnits="userSpaceOnUse" x="123" y="91" width="25" height="50">
<path d="M123.128 91.1224H147.615V140.064H123.128V91.1224Z" fill="white"/>
</mask>
<g mask="url(#mask6_9_8136)">
<g opacity="0.309998">
<path d="M123.128 92.0323L130.114 102.632L126.489 105.193C126.489 105.193 134.909 125.797 147.615 140.064L133.146 91.1224L123.128 92.0323Z" fill="#421842"/>
</g>
</g>
<path d="M125.859 91.5833L133.146 91.1222L147.088 137.964C147.088 137.964 131.295 113.28 128.691 104.652L132.105 103.541L125.859 91.5833Z" fill="#9057EB"/>
<mask id="mask7_9_8136" style="mask-type:luminance" maskUnits="userSpaceOnUse" x="153" y="90" width="15" height="47">
<path d="M153.848 90.3323H167.343V136.535H153.848V90.3323Z" fill="white"/>
</mask>
<g mask="url(#mask7_9_8136)">
<g opacity="0.309998">
<path d="M167.343 136.536C167.343 136.536 164.872 114.544 161.246 101.15L158.561 101.708L155.874 90.3327H153.848L160.261 114.544L167.343 136.536Z" fill="#421842"/>
</g>
</g>
<path d="M151.036 89.8734L154.941 90.125L157.476 100.827H160.152C160.152 100.827 164.758 121.634 166.087 132.986C166.087 132.986 154.866 106.481 151.036 89.8734Z" fill="#9057EB"/>
<path d="M143.565 71.004L144.848 71.2744C144.848 71.2744 143.865 74.0184 144.848 76.4056C145.83 78.7916 151.035 83.4585 151.035 83.4585L148.401 86.8752C148.401 86.8752 140.807 77.8175 143.565 71.004Z" fill="#D0898D" fill-opacity="0.6"/>
<path d="M153.126 97.6601L143.913 93.1838L137.842 99.4721C137.842 99.4721 156.854 139.982 153.538 172.568L149.848 172.835C149.848 172.835 152.578 156.412 147.087 137.964C141.597 119.515 133.696 93.0287 133.696 93.0287C133.696 93.0287 144.133 88.5125 151.835 92.0046L153.126 97.6601Z" fill="#EDEDED"/>
<path d="M143.711 89.6652L150.791 86.3006L152.64 95.529L143.564 91.5825C143.564 91.5825 135.609 98.1822 135.224 98.1035C134.838 98.0237 131.934 87.4565 131.934 87.4565L143.711 89.6652Z" fill="#FFA13D"/>
<path d="M151.036 96.4835C151.036 96.4835 164.504 140.074 181.185 171.209H182.692C182.692 171.209 172.863 154.525 153.126 97.6605L151.036 96.4835Z" fill="#EDEDED"/>
<path d="M328.442 189.558C325.117 198.492 317.26 205.794 301.744 205.794C269.117 205.805 257.714 186.688 257.37 186.089L257.359 186.078L263.111 179.24C263.111 179.24 276.243 189.393 288.046 183.663C294.985 180.294 297.223 173.477 297.899 168.49C298.354 165.044 298.077 162.473 298.077 162.473C298.077 162.473 301.402 161.187 305.835 159.901C311.187 158.328 318.169 156.765 322.79 157.474C327.911 158.261 333.541 175.838 328.442 189.558Z" fill="#FAB9AB"/>
<path d="M328.442 189.558C325.118 198.492 317.26 205.794 301.745 205.794C269.118 205.805 257.714 186.688 257.37 186.089C257.821 186.234 265.023 190.918 276.204 194.147C289.256 197.917 301.677 194.666 303.828 190.124C308.373 180.527 297.899 168.49 297.899 168.49C298.354 165.044 298.077 162.473 298.077 162.473C298.077 162.473 301.402 161.187 305.835 159.901L312.44 159.48C312.44 159.48 326.459 175.095 328.442 189.558Z" fill="#D0898D" fill-opacity="0.6"/>
<path d="M390.849 145.228C390.849 145.228 377.938 182.987 340.811 175.794C336.821 175.018 333.34 173.953 330.304 172.68C310.3 164.324 309.691 147.179 309.691 147.179C318.413 137.659 326.979 139.166 338.095 146.68C339.359 147.534 340.656 148.465 341.985 149.462C359.617 162.706 381.395 142.325 381.395 142.325L386.625 143.932L390.849 145.228Z" fill="#FAB9AB"/>
<path d="M394.804 139.366C392.022 141.56 390.849 145.229 390.849 145.229L386.625 143.932L381.394 142.325C381.394 142.325 388.243 136.385 390.149 135.653C392.011 134.933 402.263 133.991 403.782 136.141C403.826 136.185 403.858 136.23 403.881 136.285C405.055 138.634 397.587 137.16 394.804 139.366Z" fill="#FAB9AB"/>
<path d="M394.805 139.366C392.023 141.56 390.85 145.228 390.85 145.228C390.85 145.228 377.938 182.987 340.811 175.794C336.823 175.018 333.341 173.953 330.305 172.68C324.731 162.994 329.852 151.169 334.062 148.354C335.714 147.246 337.032 146.769 338.096 146.68C341.221 146.392 341.986 149.462 341.986 149.462C341.986 149.462 340.069 154.759 343.705 159.481C347.351 164.191 369.937 167.471 384.498 146.714C385.208 145.705 385.917 144.774 386.626 143.932C392.834 136.54 398.939 135.276 403.783 136.141C403.827 136.185 403.86 136.229 403.882 136.285C405.056 138.634 397.588 137.16 394.805 139.366Z" fill="#D0898D" fill-opacity="0.6"/>
<path d="M322.736 273.055C322.526 275.659 323.124 278.097 324.953 280.379C331.325 288.36 335.226 301.813 336.689 307.61C337.12 309.35 337.343 310.391 337.343 310.391H328.854C328.854 310.391 299.795 294.721 295.483 272.909L295.472 272.898C295.007 270.517 294.829 268.067 295.018 265.551C295.118 264.155 295.274 262.77 295.483 261.395C298.92 237.567 315.975 217.188 326.703 220.712C326.703 220.712 341.067 222.951 337.343 239.618C334.439 252.628 323.467 263.834 322.736 273.055Z" fill="#FAB9AB"/>
<path d="M337.122 304.999C337.122 304.999 335.627 304.988 335.627 307.764C335.627 310.54 328.857 310.394 328.857 310.394C328.857 310.394 322.786 317.73 316.452 318.192C310.116 318.655 311.967 322.587 314.51 322.587H337.861C338.936 322.587 339.825 321.755 339.888 320.682C340.103 316.974 340.184 308.809 337.122 304.999Z" fill="white"/>
<path d="M336.689 307.61C335.259 308.895 334.007 309.627 334.007 309.627C334.007 309.627 309.836 277.676 302.788 272.909C295.739 268.145 295.483 272.909 295.483 272.909L295.473 272.899C295.008 270.516 294.829 268.067 295.018 265.551C295.117 264.155 295.274 262.77 295.483 261.395C295.628 261.407 295.772 261.44 295.927 261.462C300.482 262.282 312.352 266.117 322.736 273.054C322.526 275.659 323.124 278.097 324.953 280.38C331.325 288.359 335.226 301.813 336.689 307.61Z" fill="#D0898D" fill-opacity="0.6"/>
<path d="M306.222 232.648C303.185 241.325 295.947 247.32 286.65 251.421C256.162 264.864 203.476 257.872 203.476 257.872L200.34 253.782C200.34 253.782 227.226 243.031 243.96 235.905C260.695 228.78 319.244 195.533 306.222 232.648Z" fill="#FAB9AB"/>
<path d="M348.736 249.249C337.863 262.415 341.045 269.741 342.286 278.85C342.817 282.752 318.78 287.439 292.901 258.182C292.581 257.816 292.259 257.45 291.938 257.084C268.066 229.367 246.809 234.753 246.223 234.897C246.388 234.432 252.24 219.415 281.165 210.072C286.518 208.343 291.074 206.581 294.941 204.808C294.941 204.808 294.962 204.797 295.018 204.786C327.889 189.747 310.711 174.42 310.711 174.42C310.711 174.42 303.087 173.5 303.597 169.71C304.571 162.473 301.889 157.896 301.889 157.896C301.889 157.896 305.458 132.982 328.377 148.597C336.634 154.238 348.591 168.535 355.639 186.045C363.509 205.65 365.238 229.267 348.736 249.249Z" fill="white"/>
<path d="M329.008 159.478C329.836 159.201 342.257 152.142 341.981 142.285C341.981 142.285 336.737 145.242 330.112 142.285C325.283 140.129 316.915 139.808 310.174 144.24C307.667 145.888 305.387 148.193 303.594 151.306L329.008 159.478Z" fill="white"/>
<path d="M306.84 164.644C306.107 164.644 299.919 165.378 294.946 163.422C294.946 163.422 298.772 160.488 298.772 155.597C298.772 150.708 308.757 142.131 316.451 141.487C324.146 140.844 306.84 164.644 306.84 164.644Z" fill="white"/>
<path d="M298.614 157.301C298.614 157.301 313.052 155.317 330.113 142.285C330.113 142.285 324.92 138.137 317.181 138.841C309.442 139.544 308.1 123.01 308.1 123.01L303.595 124.945C303.595 124.945 307.424 137.258 303.595 143.942C299.767 150.626 299.145 147.939 298.614 157.301Z" fill="#FAB9AB"/>
<path d="M305.326 110.255C303.705 110.359 302.188 111.067 301.048 112.224C300.028 113.257 300.867 117.256 298.719 118.023C294.727 119.449 294.438 126.904 295.271 128.991C297.271 134.005 311.765 132.817 315.033 120.945C317.516 111.925 310.032 109.953 305.326 110.255Z" fill="#FAB9AB"/>
<path d="M208.972 258.739C208.972 258.739 209.043 257.752 206.225 258.044C202.765 258.401 200.345 253.781 200.345 253.781C200.345 253.781 190.889 252.659 187.064 247.586C183.241 242.513 180.94 246.201 182.32 248.338L194.981 267.958C195.564 268.86 196.746 269.157 197.68 268.629C200.914 266.798 207.432 263.377 208.972 258.739Z" fill="white"/>
<path d="M309.112 109.512C309.112 109.512 307.869 107.946 305.987 107.214C303.792 106.362 298.702 106.648 298.84 111.604C298.84 111.604 298.698 113.32 300.361 114.839C300.361 114.839 300.547 112.152 303.053 112.047C303.053 112.047 302.402 116.566 305.154 119.353C306.319 120.534 307.126 122.024 307.613 123.61L308.33 125.947C308.33 125.947 309.572 123.017 311.102 123.91C312.631 124.804 310.774 127.134 308.863 127.43C308.863 127.43 307.512 133.246 311.794 134.02C317.612 135.07 326.662 129.424 317.188 124.751C317.188 124.751 325.351 112.136 314.912 108.561C309.67 106.765 309.112 109.512 309.112 109.512Z" fill="#FFA13D"/>
<path d="M329.086 167.238C322.514 173.622 320.396 187.476 315.525 192.113C303.595 203.468 296.559 204.232 295.018 204.786C327.889 189.747 310.711 174.42 310.711 174.42C310.711 174.42 303.086 173.5 303.596 169.71C303.596 169.71 306.123 175.063 318.424 169.71C330.715 164.346 329.008 159.481 329.008 159.481C329.008 159.481 335.669 160.855 329.086 167.238Z" fill="#EDEDED"/>
<path d="M348.735 249.249C337.862 262.415 341.044 269.741 342.285 278.85C342.816 282.752 318.779 287.439 292.9 258.182C300.702 261.307 314.178 264.798 326.06 256.962C343.503 245.47 358.499 221.21 355.638 186.079V186.045C363.508 205.65 365.237 229.267 348.735 249.249Z" fill="#EDEDED"/>
<path d="M286.651 251.421C256.163 264.864 203.476 257.871 203.476 257.871C203.476 257.871 213.916 255.466 237.367 255.211C260.817 254.956 275.435 242.311 275.435 242.311C280.367 244.362 286.651 251.421 286.651 251.421Z" fill="#D0898D" fill-opacity="0.6"/>
<path d="M304.937 131.226C304.937 131.226 307.269 130.769 308.863 127.43C308.863 127.43 309.672 131.763 310.675 133.648C311.678 135.533 305.207 133.012 305.207 133.012L304.937 131.226Z" fill="#D0898D" fill-opacity="0.6"/>
<path d="M314.044 118.93C314.044 118.93 313.094 113.876 315.124 114.201C316.19 114.372 314.936 119.009 314.936 119.009C314.936 119.009 317.521 117.056 318.71 117.672C319.899 118.29 315.525 119.663 315.525 119.663C315.525 119.663 319.777 119.493 319.93 121.006C320.082 122.517 314.995 120.495 314.995 120.495C314.995 120.495 316.612 123.909 315.525 124.282C314.437 124.654 314.055 120.731 314.055 120.731C314.055 120.731 311.537 123.926 310.469 122.726C309.402 121.526 313.544 119.874 313.544 119.874C313.544 119.874 308.638 118.703 308.943 117.253C309.249 115.804 314.044 118.93 314.044 118.93Z" fill="white"/>
<path d="M314.919 119.648C314.919 119.87 314.71 120.049 314.453 120.049C314.197 120.049 313.989 119.87 313.989 119.648C313.989 119.426 314.197 119.247 314.453 119.247C314.71 119.247 314.919 119.426 314.919 119.648Z" fill="#FFA13D"/>
</svg>
